<mxfile host="app.diagrams.net" modified="2023-09-18T13:42:19.509Z" agent="Mozilla/5.0 (Macintosh; Intel Mac OS X 10_15_7) AppleWebKit/537.36 (KHTML, like Gecko) Chrome/116.0.0.0 Safari/537.36" etag="aEcJP7NtbCMNNNBcWSCE" version="21.7.4" type="github">
  <diagram name="Page-1" id="L6u_1JeTI2_FOT_s-HiP">
    <mxGraphModel dx="1005" dy="644" grid="1" gridSize="10" guides="1" tooltips="1" connect="1" arrows="1" fold="1" page="1" pageScale="1" pageWidth="827" pageHeight="1169" math="0" shadow="0">
      <root>
        <mxCell id="0" />
        <mxCell id="1" parent="0" />
        <mxCell id="ZnrArUxqcu4yzv8pIiHy-2" value="10.63.192.215" style="shape=image;verticalLabelPosition=bottom;verticalAlign=top;imageAspect=0;aspect=fixed;image=data:image/png,iVBORw0KGgoAAAANSUhEUgAAAIAAAAB8CAYAAAChbripAAAABmJLR0QA/wD/AP+gvaeTAAAa9klEQVR4nO2deWBU1bnAf+fOmj0kISBBQCSEVdm3ANqqT63FhUXQ1/pqrVqXWkWsIn363Gr79KmtWmtVRG0VrVVLsVhBRQKyE7ZIEnbDThJCJsns97w/Zu7kZpgsk8yShPz+mnPuved+M+ebc77zne+cA2cRUkohpbxESvmmlLJYSlknpTwupdwupXxaSnlBvGXsIgpIKRUp5TQp5UbZPKullNPiLXMXEUBKaZJS3iSl3NWCig9ms5RylpRSxPt7RJNO+eWklInAz4B5wLlBlx2HTnoKC4ocnn1HvZbURMV9bnfFc8mIhIyURGUooATdvw14GvibEEKNvvSxpVMpgJQyDbgL+CWQ3eAaVC7fYt/xuw+qL6yq9aaHer5vD0PZYz/KODC8n2kcYAm6XAr8DviLEMIVBfHjQqdQACllFnA3cA/QTX9NlZR/sdVe9OR7p0fW2NXUlpSXmaqUPzAzrejSEQkjhSD4mWPAC8CLQoi6SMgfTzq0AkgpewD3Ab8AEvXXvCqHPiyo2ff7f9jGOt0yoTXlpyUptl/NStt++eiEISJIsYBy4GXg90KIU60pvz3QIRVASnkecC9wG2DVX3N5+e7t5bYjf15mG+NVMUbifUkWUXvXtJTNs6YkD1QUegZdtgFvAr8VQhyNxPtiSYdSACnlcOAB4AZoWLkOlyx5Y3lN+aLPbRNUFUM03m8yCtePL03eeNsVKTkmA/2CLjuBt4AnhRBl0Xh/NOgQCiClHAnMB2YSJLOtTt3x3MfVjn+urxsjZWy+jyJQr5+avP6ea1KyLSZxftBlF/A+8JQQoiQW8rSFdq0AUsrJwIPAD4OvVdWqRU+8W8XK7Y6hsZfMhyJQfzg+cfO8mWmJSRYRLIcK/Av4HyHE5jiI1yLanQL4HS8/BB4GJgRdVo9VeTc/8tap5M17XINjL13jTBps3bHgxjRHz3TD2BCXVwCPCCHWxlqu5mg3CiClVICrgP8BRgVddu896tmw4K1T5+w+7O4fc+HCYOJgy45f35ju6JluGMOZv+8a4HdCiH/GQbSQxF0BpJRmYA6wABgYdNlZethT+NCblX0PHvecE3vpWs+wfubSR25MP3n+OcYJcIZRuhV4Hp9TKa7exbgpgJQyiXp3be+G16jdvMe5+b/frhp0osqbHbKADkKfbEPZgjnp+8fkWsZzpndxJ/AM8K4QwhN76eKgAFLKVOBm4CFoOKZWpaz8Yqtjx9OLqy88XRfaXdtRyck0HHnkP9P3jMm1jCHIaQUcwOddfFUI4YilXDFTAClld+r99A0qV5Wc/HyLvfQ3i6tG1jpk8I/TqchIUSp+NStt56UjEkYIQVrQ5ePAn4DnhBDVsZAn6gogpewLzMXX3Ae7a8s+LKjZ/8IS2ziXS1pDFtBJSbKImrumpWyZNTV5kCII7uY0N/MfhBCV0ZQjagogpTwf3+TM7QT1fU6X3PP68prjb31uGx8pd21HJdGi1N49LXnzrCnJuYpCsKFbAyzEN3I4Eo33R1wB/GFV84AbCbJ+HS5Z/Nqymuq3v7CNVWPktesoaG7mW69I7mU2iPOCLjuBD4DHhRB7IvneiFWClDIfn2F3VXC5mrt2ybq6UE6SLnRo3sUHZqYlJ1pEsLPLDSwGnhZC7IrE+9qsAE25a0+e9mx79J3TxvUlzri5azsqQiCnjU/cNPe61ISURGVY0GXNzfy4EGJjm97T2gellEOAV4CpQZe8ZeWeNQsWVWUVHXQNaYtwXfj43oUJOx+anaZmpSjBUcsS+CtwvxDiRGvKbpUCSCmvxtcn6Y07V/Eh99pfLzrVZ/9xT3Af1kUEGJ1rLn3khvTa3t2NI2hYd8eAS4QQ34ZbZtgKIKWcCiwHzFre4Qrvup+/WNHnSIWnV7jldRE+F/Y3F794Z6Y3aAbyBDAy3NFCWAogpUzAFyWbq2W9/UVtwe8/OR3cDXQRZRSBunBu5prh/SxTdNkfCSFmhFVOmO+dTX3ls2StfVVX5ccHVaLc/FzF5O9OePRTzNOllGEZ3OEqwBztQ61TFj2x+NTkMJ/vIoJIibjlhfKBEvTewhvDKaPFCuCftg38219eYquOVuxdFy2n0qZmri927tBlXRrO8+G0AKMALby67pO1tSPCeVEX0eONz2r0cwkj/SujWkQ4ChBo7k/VqCWtjbXvIvJs3efMkxJt9tAEtNjjGo4CTAq8cK/rdBjPdRFlVIlSUa3u1mXlt/TZcBRgovbhi632lDCe6yIGbNnrqtElI6sAUsoB1EfvqKt3OXObur+L2LN8i10fXDLJH2TbLC2diw9olNMl99pq1Q6rAELAoN4m8odayR9ioc4pWV3kYE2Rk+9OxiUsLyKsK3bmAh58dZoODAaKmnsubAUoPeI5is4Z1BFIMAvGDrQwZZiVyUMtZKc3HL1OGGRh3gw4XO5lfYmTgp0O1pU4cbllnCQOnzqnmmR3yuIEixjkz8onggoQMABXbrd3iLF/TpaBqcOsTBlmZdQAMyZD817vnCwD07MSmZ6fiNMt2brPRcFOByu3Ozha6Y2B1G1jV5nrxKgBFr0C/Lm5Z5pVACml1pwA8OU2e59WSxhFLCbBiP5mpg63ctFwK+dktE1PLSbB+DwL4/MszJuRxuFyLwVFDlbtcLBljwu3t/21Dl9td5pGDQhM0LbIEGz2byGl/AHwKYAqOTH2niPtJk4/J8sQqKRJQ6wkWmITZWZ3STaVOlm108HqIicnqtpH69Czm+H4p4/36KHLOkcIcaypZ1rSBQQ06XC5Zx+cEcEaMwwKDD/PzJShVsYPsjD4XFNc5EgwC6b4uxeAfcc8rNrhYEOJk027nXjjtNbn2ClvD68qjxgUoU3LTwQ+buqZsBRgfbHT2Qb5WkVGisKkwVamDLMwcbCVJGv7iyXt39NI/57J/OSyZE7XqmwsdbK+xMnK7Q4qbbHVhrKT3gP9ehg1BcinLQogpWzgVly+1ZnVZglbSP+eRuZOT2Pi4ODVVO2btCSFS0cmcOnIBOZfD//cUMdLS6pjpghrvnV6+vUIVGuzdkCTfycp5ThgvT9pn3DfUYPbI81NPRNpzj/HyJRhVsblWRg9wIyxBdZ8PHG5JYX7XGwocbJqh4N9x2LrWxjez1y66P4sbZGtG0hvajOr5rqAwPCvqlYtdXvkhRGQMSz2HvWw92gNi5bXkJakMHagz+ibOtxCVmr7GJFW2lTW7vIZhWt3Oah1xG+EUPSda4CUVPt3NzMBo4GCxu5vTgECTci2/e6Y7oQ1bXwiZeUetu93ofpbz9O1KisK7awotPP0+5DX28T4QRamDrNywXlmRIwaB1WFksNuCnb6hoXFh9zIEHVuMfkcUEJAwc7YrPlUVZRKm7onM1XR9ljIpw0KoJsAciRFQL4WM21CIqMHmKmuU9lQ4qRgp+8fVl3n0wZVwq4yN7vK3CxaXkO3ZIXRuT5lmDrcQkpCuMFOTXOqRmXzbp8cX+9wYLOH7tP1Rqs2NH33q9qYKQDAlr1O22UjA7P1TdoBjSqAfyu2HC25eqd9QGTEC4/UxHqjKvift6vMHbjvVE1966AokJdjYupw31BtUG9T2K2DKqHkkJv1xU4Kihxs3+dCbaRl1+yUWLdEjbGi0JGqVwAppdLYRhRNtQD1E0Buufd0rRoXBdCjKDD4XBODzzVx25UpHK7w+ipop4N1xU5cHl8NqWp96/Dqv2z0yjAwYXDzDiOttVlf4mTVDifl1aEdPFazYFwTcwvx5psiRx71E0PdgDwg5FKyphQgYADuPeo5CsRdAYLJyTQwPd/nu3e4JBv93rngyjtS6eWjNXV8tKYOs0kwJtdM/pAzZwN3HKy3N4LRlGjqMJ8Tymxsv6OROpdMtDtlSYJF5Pmz8mmFAgRagJU7HO332/qx6rxz82f7mu9QRprLLfnmWyfffOvkmSbKC+5G4uV1bC3FZa7jIwdYNAWYBLwe6r6QCuDfxiUQX/7lVnvwluvtGkU07Cr0w7RvvnVQ5wzdmeunjS8abiUzNbKGZCxZud1pHNmCiaHGWoCJ+Nf2q5Ly/cc8fSMrXmzJSFG4alwCV41LwOGSrC9x8txH1Rwq9zlpRg8wc/sPUhhxvgVDx63zBny1w9H/vumBjc5zpZTZoRaQNvZ1AxpztNKzNwryxQ2rWXDRcCu9MusNt6F9zYzO7TyVD3C43NNTVdHWCQp0Q3o9zSrAhmK3PcKytQv0jpv2N7MfGcrKPQd1yZDdwBkKIKU0AOO09PLCuphNAMWSBgrQSTXgmyKnW5dsmQIAFwLJ/s/OrXtdHSr+r6V00jpvwPKtdn1wyGgpz9yJLZQCBDTFVidLnB7ZseZjuwiw44BrgJRo6wUs+CaGGtCkAmzb5+ywR6E0i67d76xdgKpiqKxtesVQKAUIeAC/2ObotOv/ZIPPnVQDgMI9Tv2Oo00rgJSyD/Xn7MnVRY7g0zA6DWeDEQiwotChX8Y3KfggzOAWIKAhLq/cX2lTM6MpXDxp0AJ0YgX4psgxENAmRrII2pI/WAHqJ4COeA5HV7T40pkrXU+tUyY7XFLvzGvQDTTaAhTsbP8TQG3iLOkCAEoPu/RrAybprwUUQEqZDAzX0l8U2nPoxMhGPndGvtrm1M/5NNoCTMA/OSShYu8xT7/oixY/zhYjEODLbQ79ZF6e/+wGoKECBDTjeKVnb6zO4Osi+hwq9+SoKtqppgLdaWx6BQj0DRtL3R3+UOTmOJu6AIBD5Z4DumTgz65A4Mi28VrmvwvtGTGTLE7Is0wDvil26o+8b6gA+Iw/bYsR5+bdZ8MWMHpXcOfXgBVb7PpFvWOl9M3xaAqgmwBSd7vOgi3gzoZ4AD3b97typaTWn7TgP5zzDAXYedBVEWPZ4sLZNAoA8KoYq2rVUl1WPoRQgC+3O9vF9O+pmthtuhDt+o/ld2mKrfvOnBhSpJS9gMA4sWCno12czTt/4Skefaeq0cUZbUWNgRF44LiHBxeeYuHnNc3fHAO+KHQk65KTpZTCiG4LWLeXAyervP1iLlkIVAlLN9SxYqudORcl8dP/SIna5hCR7gKqalRe/7eND1bVxm23kFCs2hmYGDLgmxgaYEQXLfrdcc8hoF9cpGsEh0uyaHkNn6yt49YrUpg1JSki0bvRMAIdLsnir2tZ+LktrkvEG6PWIVOcLrnbYhbaKG+SEd34v/iwu93ulFhVo/LMh6f5W0Etd1yVwqUj289ARZWwbKOdP/yjOmpdVqQot6kVOZkGTQHGG9Gt+TtS4WlfqxxDoPWr4/LquPfaVPJ6t27JVqTiAdaXOHnh42pKD7ubv7kdUGlTXTn1ayL6GoFAxEhWirF9q6+ODSVOfvS/J/n+iAR+eW0qvcLcF7CtXcC+Yx5+/0k1q4tieth3m+mWouj/Md2MQAX+fQBGDDB1qBWQqoQVhXZWFzmYc1ESN1+WTHILN4aQrdSAE1VeXvvMxidr6xpdSdyeyU5X9KHiRxTqN4GiXw/jYKu58Q2F2iuaoXj1YydY/HX4lndLgkLt/nfMePIEH63pmJV/QT9zidkg9MP8rQrwkZYSkPGrmekbYi9aZDhd6zMUZz11ghWFTa9oa6knUJXw6QY71zx2nBeXVDe6srgj8ORP0quCshYr+A4jLtFyrp5gHZvb29ShF4QePOEzFG9+rpxt+10h72mJEbi+xMkNvz3JI++coqK6A/7ldcyekrQuJ9M4Xpf1VyHEHkUI4QV+hm9POYQQSW/PyxIpCUqHPxZm+34XtzxfzoMLT3G4oqF925QJUFzm5vY/VHDnSxXsOdIxrPumGNjbtP+BWWn6A6hPAHPBPxcghFgNzNOumg2i/4cLsvcoCh1mVNAY0m8oznjiBM/+/XRgd69Q8QDHq7w8tbiKHz97kk27Y74rblRIsgrborlZUojAek8PMFvbK6CBb1VK+Tpwi5b+apt95bzXT10cK2FjQXqywm1XpvDuV7WBDSLyh1rJ7WXkvZW1ODvQIRHNoQjUpY/32Nwj3aA/RewXQoiXtESwAliBr6lfHi6f/ah63Xtf1YTcXKCL9s0Lt2eunDLMcrEu6x0hxE36exoMmoUQDuBaqN9Z4v7rUi8Y3MekX2DYRQdgRn7C+inDLBfpsrYAtwffd4bXRAhxFJgJOH1pkt66v3tCtxRRGXxvF+2TgTnGffNndxtCfQt/HLhGCHHG2Dik20wIsRa4V0sbFHq//1CPA53BKOzspCUaqt5+INsgRMDF7wauF0IcCnV/o35TIcSf0B06lJmqjHr+1ozVEZW2i4iiCNT3H87aYzLUB/jgM/pWNfpMM2XejW6n6cnDrFN/9L3kb9ooZxdR4g93ZBR0TzOM0WUtEkK82tQzTSqAEMINXA9ozYe4b3rqyJHnm0NuO9pF/JhzUXLBxMHWqbqstcDPm3uu2akz/6lTs/AbhUDCq/dkpmakKGdF9HBHYFg/c+kDM1NHUW/0HQNmCSGa9Wa1aO5UCLEOuE1LGxSR88HD2QcNCu02guhsIS1JOfX6vZkJgHaegxtf5bdof4cWR9cJId4GXtbS3ZKVUS/dkbEmHGE7E1/+tidLH+vR/I1RxKDg+fuvsw+aDEK/l/Odftd+iwg3vPI+YKWWGDfIetFtV6Y0ehxJF9HlT3d3X9MtWRmhy3pJCBFyV/DGCEsB/EbhTGC/lnf7D1LGjsk1fxtOOV20nZ9clrxmVK5J7+n7Brg/3HLCDrAWQlQAMwAtcsj6yt1Z6ZmpSnm4ZXXROi44z1z8i6tTR+qyyoDrhBChgx+aoKWnhzdACFEopbwdeAdAUej19wXZOy5bcDw1FucK5vU28e6D3Vm6vo63VtRwzzWpjDjfd0L4t9+5+dO/bGxuZDr3ijEJXD8lidwcE0YFysq9LNtUx1+/rA0cOaOhCJhzcRIz8pPolWngVI3KF4UOXvm0OmTZsSArVTn5xr1ZqUCiP8sBzAi1FXxLaPUSCyHEX4AXtHRKojL8lbsy1rW2vNbQO8vIm3OzMJt8J3Mt22RnaF8Tr9ydydRhZ2yLy33XpfLUf3Wjd5aRJevqeHelb7Hs3dNS+ePdmWccMT9/djr3T0/DZBS8t7KWZRvtTB1u4aU7M1HisLW80aC43384+4ii0EuXfZcQYmNry2zTWiv/zuKfApdrea//21bwylLblLaU2xxaCwCwaHkNLy6p/0cO6WNi0f3dOV2rctWjx3H55/dHDTDz2i+zOFTu4aZnyzld6wsMMSjw/O2Z5A+x8MelNt74tw2A0bkW/nxPJqWH3fz0uXLsLl85VrPgjXuzGHSuiaOVXn746PFoftUGvDk3c9UF51n0zp7nhRBz21Jmm/TYH052I7BPy/vZ5SkT8odYt7el3JZis6uBCtP49js3n22yk5GiMGVo/ULnayb4WszXPqsJVD6AV4XnPz6NlHDNxMRA/tXjfSuPXv2XLVD54ItA/uOnDd8ZC376Hylrgir/S+BXbS23zQ2ZEKISmA6BzQdML/w8o2fPDEOT59ZHgpJD7pBRulv2+vp//aoh7XMo22D/MQ/l1V5yMg2BAye1+7fsOdOuKtwT23CxcXnWnXdNS9H7+A8Cc4QQbXbERaQnE0JsA27CH12nCLIXP9i93GJs3hXZFhqL1NXy9YtEtM+NPVMeeEYE7veqBE4q1VPnlA1ahWjSPd1w4uU7MzLx7eoBYMdn9J2MRPkRM2WEEB8Bz2rplERl2KJ5Wa02TlpCY6d6afk1uuNdtc+NPZMVeEYG7jcovpNLg0m0CBLM0d9Fz2hQ3O8/1P2YonCOLvsWIcTmSL0j0rbsQ8AyLTEwxzT5nqtTG52Lbit5vU0hTwEd7T8ureRQfUi39nl07pkboPTNNpKVauBwhTcQNazdP2rAmaPaUQNis4nKwnsz16UlKRfosp4RQrwXyXdEVAH859P+J7BHy/uvy5InTh1m3RbJ92ikJCjccnlKg7whfUxcPjqBSptKQVF9D/SPdT6/1a1XJJOWVP+1DQrMnZ6KEPCPtfWr4v653hc9dfsPUhr8261mwR1XNXxnNLjn2tRVQ/uZ9KOpFcDDkX5PVNoxKeVgYB2QCqBKTl796AnP0VOec5p+smVow8DCvS5yexnZVeZm2z4X3dMNXDE6AZNBcP9rlawKOrH7vutS+dH3k6m0+Q6adrol+UOt9O9ppHCvizterMDtre/bf31DOtdNSuRIpZcvt9qREr5/YQInTnsZ0MtIjV1GZRg4Ic+y4+W7MwdS3+8fAMYKISLubY1aRyalvBbfukMBYHfK4kvmH+vrjMAWdKE8gSPPN2My+jyBr3zauCfwyjEJzJqaRG4vE0YDlJ308tmmOv7yVW3AZ6ChCLjh4mRmTE70eQJtKiv8nsClj/Wgzhl5BeiRZjy+9PHuKIrQphprgElCiB0RfZGfqFoyUsongQVaeu8Rz5rrnz7R5Hn2LUGvAI/+JXi9Y8fFbBaOFb/puTfJIrRjeyW+4d4H0XpntB2ajwBLtcT5vYz586ZHzyjs6Cy8t/tGXeUDPB3NyocoK4DfKLwRCEwX3/C95Enfu8C6NZrv7YjMm5H69eBzjXqj73N8f6CoEvUpDSGEDZ+nUFttbHzm1ow+fbINZdF+d0dh4hDr9hsuTtYvv9uNbwFn1NdhxOxMACnl1cDH+JXO4ZIll8w/dq7DJRObfrJzk5NpOPLJoz3MikA7orcGmCCEKIrF+2M2qSmEWAI8oaWtZpH3zrzuZ3VXYDYLx3vzs6t0lS+Bm2NV+RBDBfDzGPChluh/jnHS/NlpX8dYhnbDorlZm5IsYogu63EhxIeNPhAFYqoAQggJ3AwENHzm5KTJV45N3BRLOdoDD8/ptjIvxzRZl7UEeDzWcsQ8rkUIUYPPKNQG8IYnbkrv3y/b+F2sZYkXl45K2DIjP0Ff+cXAj/2jppgSh8AmEEKUArPxn2gpIONvC7KNZ4MSTB1m3fbbn3TLoz4e04ZvejcugYZxPRlMSvkw8FQgDZWvLbN9++dltvzOdmqZxSTsv7m52/qLh1snAdoUo4pv3f7SJh6NKvFWAAG8j2/tYQCvKo9sLnXt3rjbZTxU4bGqasdUBqtZeM/LNjgmDrWKgb1Mw4UInMuk8d9CiCfjIpyfuP+wUkoz8Dfg6njLEmP+Twgxr/nboktcbAA9/sUM1wO/wb9XYSenEri1PVQ+tIMWQI+UcgC+2MKrgPOAbvGVKCJIfMu1S/FNj78bjXn91vL/ANBkewl7s7QAAAAASUVORK5CYII=;labelBackgroundColor=default;labelBorderColor=none;spacing=0;" parent="1" vertex="1">
          <mxGeometry x="340" y="460" width="66.06" height="64" as="geometry" />
        </mxCell>
        <mxCell id="ZnrArUxqcu4yzv8pIiHy-1" value="10.63.192.214" style="shape=image;verticalLabelPosition=bottom;verticalAlign=top;imageAspect=0;aspect=fixed;image=data:image/png,iVBORw0KGgoAAAANSUhEUgAAAIAAAAB8CAYAAAChbripAAAABmJLR0QA/wD/AP+gvaeTAAAa9klEQVR4nO2deWBU1bnAf+fOmj0kISBBQCSEVdm3ANqqT63FhUXQ1/pqrVqXWkWsIn363Gr79KmtWmtVRG0VrVVLsVhBRQKyE7ZIEnbDThJCJsns97w/Zu7kZpgsk8yShPz+mnPuved+M+ebc77zne+cA2cRUkohpbxESvmmlLJYSlknpTwupdwupXxaSnlBvGXsIgpIKRUp5TQp5UbZPKullNPiLXMXEUBKaZJS3iSl3NWCig9ms5RylpRSxPt7RJNO+eWklInAz4B5wLlBlx2HTnoKC4ocnn1HvZbURMV9bnfFc8mIhIyURGUooATdvw14GvibEEKNvvSxpVMpgJQyDbgL+CWQ3eAaVC7fYt/xuw+qL6yq9aaHer5vD0PZYz/KODC8n2kcYAm6XAr8DviLEMIVBfHjQqdQACllFnA3cA/QTX9NlZR/sdVe9OR7p0fW2NXUlpSXmaqUPzAzrejSEQkjhSD4mWPAC8CLQoi6SMgfTzq0AkgpewD3Ab8AEvXXvCqHPiyo2ff7f9jGOt0yoTXlpyUptl/NStt++eiEISJIsYBy4GXg90KIU60pvz3QIRVASnkecC9wG2DVX3N5+e7t5bYjf15mG+NVMUbifUkWUXvXtJTNs6YkD1QUegZdtgFvAr8VQhyNxPtiSYdSACnlcOAB4AZoWLkOlyx5Y3lN+aLPbRNUFUM03m8yCtePL03eeNsVKTkmA/2CLjuBt4AnhRBl0Xh/NOgQCiClHAnMB2YSJLOtTt3x3MfVjn+urxsjZWy+jyJQr5+avP6ea1KyLSZxftBlF/A+8JQQoiQW8rSFdq0AUsrJwIPAD4OvVdWqRU+8W8XK7Y6hsZfMhyJQfzg+cfO8mWmJSRYRLIcK/Av4HyHE5jiI1yLanQL4HS8/BB4GJgRdVo9VeTc/8tap5M17XINjL13jTBps3bHgxjRHz3TD2BCXVwCPCCHWxlqu5mg3CiClVICrgP8BRgVddu896tmw4K1T5+w+7O4fc+HCYOJgy45f35ju6JluGMOZv+8a4HdCiH/GQbSQxF0BpJRmYA6wABgYdNlZethT+NCblX0PHvecE3vpWs+wfubSR25MP3n+OcYJcIZRuhV4Hp9TKa7exbgpgJQyiXp3be+G16jdvMe5+b/frhp0osqbHbKADkKfbEPZgjnp+8fkWsZzpndxJ/AM8K4QwhN76eKgAFLKVOBm4CFoOKZWpaz8Yqtjx9OLqy88XRfaXdtRyck0HHnkP9P3jMm1jCHIaQUcwOddfFUI4YilXDFTAClld+r99A0qV5Wc/HyLvfQ3i6tG1jpk8I/TqchIUSp+NStt56UjEkYIQVrQ5ePAn4DnhBDVsZAn6gogpewLzMXX3Ae7a8s+LKjZ/8IS2ziXS1pDFtBJSbKImrumpWyZNTV5kCII7uY0N/MfhBCV0ZQjagogpTwf3+TM7QT1fU6X3PP68prjb31uGx8pd21HJdGi1N49LXnzrCnJuYpCsKFbAyzEN3I4Eo33R1wB/GFV84AbCbJ+HS5Z/Nqymuq3v7CNVWPktesoaG7mW69I7mU2iPOCLjuBD4DHhRB7IvneiFWClDIfn2F3VXC5mrt2ybq6UE6SLnRo3sUHZqYlJ1pEsLPLDSwGnhZC7IrE+9qsAE25a0+e9mx79J3TxvUlzri5azsqQiCnjU/cNPe61ISURGVY0GXNzfy4EGJjm97T2gellEOAV4CpQZe8ZeWeNQsWVWUVHXQNaYtwXfj43oUJOx+anaZmpSjBUcsS+CtwvxDiRGvKbpUCSCmvxtcn6Y07V/Eh99pfLzrVZ/9xT3Af1kUEGJ1rLn3khvTa3t2NI2hYd8eAS4QQ34ZbZtgKIKWcCiwHzFre4Qrvup+/WNHnSIWnV7jldRE+F/Y3F794Z6Y3aAbyBDAy3NFCWAogpUzAFyWbq2W9/UVtwe8/OR3cDXQRZRSBunBu5prh/SxTdNkfCSFmhFVOmO+dTX3ls2StfVVX5ccHVaLc/FzF5O9OePRTzNOllGEZ3OEqwBztQ61TFj2x+NTkMJ/vIoJIibjlhfKBEvTewhvDKaPFCuCftg38219eYquOVuxdFy2n0qZmri927tBlXRrO8+G0AKMALby67pO1tSPCeVEX0eONz2r0cwkj/SujWkQ4ChBo7k/VqCWtjbXvIvJs3efMkxJt9tAEtNjjGo4CTAq8cK/rdBjPdRFlVIlSUa3u1mXlt/TZcBRgovbhi632lDCe6yIGbNnrqtElI6sAUsoB1EfvqKt3OXObur+L2LN8i10fXDLJH2TbLC2diw9olNMl99pq1Q6rAELAoN4m8odayR9ioc4pWV3kYE2Rk+9OxiUsLyKsK3bmAh58dZoODAaKmnsubAUoPeI5is4Z1BFIMAvGDrQwZZiVyUMtZKc3HL1OGGRh3gw4XO5lfYmTgp0O1pU4cbllnCQOnzqnmmR3yuIEixjkz8onggoQMABXbrd3iLF/TpaBqcOsTBlmZdQAMyZD817vnCwD07MSmZ6fiNMt2brPRcFOByu3Ozha6Y2B1G1jV5nrxKgBFr0C/Lm5Z5pVACml1pwA8OU2e59WSxhFLCbBiP5mpg63ctFwK+dktE1PLSbB+DwL4/MszJuRxuFyLwVFDlbtcLBljwu3t/21Dl9td5pGDQhM0LbIEGz2byGl/AHwKYAqOTH2niPtJk4/J8sQqKRJQ6wkWmITZWZ3STaVOlm108HqIicnqtpH69Czm+H4p4/36KHLOkcIcaypZ1rSBQQ06XC5Zx+cEcEaMwwKDD/PzJShVsYPsjD4XFNc5EgwC6b4uxeAfcc8rNrhYEOJk027nXjjtNbn2ClvD68qjxgUoU3LTwQ+buqZsBRgfbHT2Qb5WkVGisKkwVamDLMwcbCVJGv7iyXt39NI/57J/OSyZE7XqmwsdbK+xMnK7Q4qbbHVhrKT3gP9ehg1BcinLQogpWzgVly+1ZnVZglbSP+eRuZOT2Pi4ODVVO2btCSFS0cmcOnIBOZfD//cUMdLS6pjpghrvnV6+vUIVGuzdkCTfycp5ThgvT9pn3DfUYPbI81NPRNpzj/HyJRhVsblWRg9wIyxBdZ8PHG5JYX7XGwocbJqh4N9x2LrWxjez1y66P4sbZGtG0hvajOr5rqAwPCvqlYtdXvkhRGQMSz2HvWw92gNi5bXkJakMHagz+ibOtxCVmr7GJFW2lTW7vIZhWt3Oah1xG+EUPSda4CUVPt3NzMBo4GCxu5vTgECTci2/e6Y7oQ1bXwiZeUetu93ofpbz9O1KisK7awotPP0+5DX28T4QRamDrNywXlmRIwaB1WFksNuCnb6hoXFh9zIEHVuMfkcUEJAwc7YrPlUVZRKm7onM1XR9ljIpw0KoJsAciRFQL4WM21CIqMHmKmuU9lQ4qRgp+8fVl3n0wZVwq4yN7vK3CxaXkO3ZIXRuT5lmDrcQkpCuMFOTXOqRmXzbp8cX+9wYLOH7tP1Rqs2NH33q9qYKQDAlr1O22UjA7P1TdoBjSqAfyu2HC25eqd9QGTEC4/UxHqjKvift6vMHbjvVE1966AokJdjYupw31BtUG9T2K2DKqHkkJv1xU4Kihxs3+dCbaRl1+yUWLdEjbGi0JGqVwAppdLYRhRNtQD1E0Buufd0rRoXBdCjKDD4XBODzzVx25UpHK7w+ipop4N1xU5cHl8NqWp96/Dqv2z0yjAwYXDzDiOttVlf4mTVDifl1aEdPFazYFwTcwvx5psiRx71E0PdgDwg5FKyphQgYADuPeo5CsRdAYLJyTQwPd/nu3e4JBv93rngyjtS6eWjNXV8tKYOs0kwJtdM/pAzZwN3HKy3N4LRlGjqMJ8Tymxsv6OROpdMtDtlSYJF5Pmz8mmFAgRagJU7HO332/qx6rxz82f7mu9QRprLLfnmWyfffOvkmSbKC+5G4uV1bC3FZa7jIwdYNAWYBLwe6r6QCuDfxiUQX/7lVnvwluvtGkU07Cr0w7RvvnVQ5wzdmeunjS8abiUzNbKGZCxZud1pHNmCiaHGWoCJ+Nf2q5Ly/cc8fSMrXmzJSFG4alwCV41LwOGSrC9x8txH1Rwq9zlpRg8wc/sPUhhxvgVDx63zBny1w9H/vumBjc5zpZTZoRaQNvZ1AxpztNKzNwryxQ2rWXDRcCu9MusNt6F9zYzO7TyVD3C43NNTVdHWCQp0Q3o9zSrAhmK3PcKytQv0jpv2N7MfGcrKPQd1yZDdwBkKIKU0AOO09PLCuphNAMWSBgrQSTXgmyKnW5dsmQIAFwLJ/s/OrXtdHSr+r6V00jpvwPKtdn1wyGgpz9yJLZQCBDTFVidLnB7ZseZjuwiw44BrgJRo6wUs+CaGGtCkAmzb5+ywR6E0i67d76xdgKpiqKxtesVQKAUIeAC/2ObotOv/ZIPPnVQDgMI9Tv2Oo00rgJSyD/Xn7MnVRY7g0zA6DWeDEQiwotChX8Y3KfggzOAWIKAhLq/cX2lTM6MpXDxp0AJ0YgX4psgxENAmRrII2pI/WAHqJ4COeA5HV7T40pkrXU+tUyY7XFLvzGvQDTTaAhTsbP8TQG3iLOkCAEoPu/RrAybprwUUQEqZDAzX0l8U2nPoxMhGPndGvtrm1M/5NNoCTMA/OSShYu8xT7/oixY/zhYjEODLbQ79ZF6e/+wGoKECBDTjeKVnb6zO4Osi+hwq9+SoKtqppgLdaWx6BQj0DRtL3R3+UOTmOJu6AIBD5Z4DumTgz65A4Mi28VrmvwvtGTGTLE7Is0wDvil26o+8b6gA+Iw/bYsR5+bdZ8MWMHpXcOfXgBVb7PpFvWOl9M3xaAqgmwBSd7vOgi3gzoZ4AD3b97typaTWn7TgP5zzDAXYedBVEWPZ4sLZNAoA8KoYq2rVUl1WPoRQgC+3O9vF9O+pmthtuhDt+o/ld2mKrfvOnBhSpJS9gMA4sWCno12czTt/4Skefaeq0cUZbUWNgRF44LiHBxeeYuHnNc3fHAO+KHQk65KTpZTCiG4LWLeXAyervP1iLlkIVAlLN9SxYqudORcl8dP/SIna5hCR7gKqalRe/7eND1bVxm23kFCs2hmYGDLgmxgaYEQXLfrdcc8hoF9cpGsEh0uyaHkNn6yt49YrUpg1JSki0bvRMAIdLsnir2tZ+LktrkvEG6PWIVOcLrnbYhbaKG+SEd34v/iwu93ulFhVo/LMh6f5W0Etd1yVwqUj289ARZWwbKOdP/yjOmpdVqQot6kVOZkGTQHGG9Gt+TtS4WlfqxxDoPWr4/LquPfaVPJ6t27JVqTiAdaXOHnh42pKD7ubv7kdUGlTXTn1ayL6GoFAxEhWirF9q6+ODSVOfvS/J/n+iAR+eW0qvcLcF7CtXcC+Yx5+/0k1q4tieth3m+mWouj/Md2MQAX+fQBGDDB1qBWQqoQVhXZWFzmYc1ESN1+WTHILN4aQrdSAE1VeXvvMxidr6xpdSdyeyU5X9KHiRxTqN4GiXw/jYKu58Q2F2iuaoXj1YydY/HX4lndLgkLt/nfMePIEH63pmJV/QT9zidkg9MP8rQrwkZYSkPGrmekbYi9aZDhd6zMUZz11ghWFTa9oa6knUJXw6QY71zx2nBeXVDe6srgj8ORP0quCshYr+A4jLtFyrp5gHZvb29ShF4QePOEzFG9+rpxt+10h72mJEbi+xMkNvz3JI++coqK6A/7ldcyekrQuJ9M4Xpf1VyHEHkUI4QV+hm9POYQQSW/PyxIpCUqHPxZm+34XtzxfzoMLT3G4oqF925QJUFzm5vY/VHDnSxXsOdIxrPumGNjbtP+BWWn6A6hPAHPBPxcghFgNzNOumg2i/4cLsvcoCh1mVNAY0m8oznjiBM/+/XRgd69Q8QDHq7w8tbiKHz97kk27Y74rblRIsgrborlZUojAek8PMFvbK6CBb1VK+Tpwi5b+apt95bzXT10cK2FjQXqywm1XpvDuV7WBDSLyh1rJ7WXkvZW1ODvQIRHNoQjUpY/32Nwj3aA/RewXQoiXtESwAliBr6lfHi6f/ah63Xtf1YTcXKCL9s0Lt2eunDLMcrEu6x0hxE36exoMmoUQDuBaqN9Z4v7rUi8Y3MekX2DYRQdgRn7C+inDLBfpsrYAtwffd4bXRAhxFJgJOH1pkt66v3tCtxRRGXxvF+2TgTnGffNndxtCfQt/HLhGCHHG2Dik20wIsRa4V0sbFHq//1CPA53BKOzspCUaqt5+INsgRMDF7wauF0IcCnV/o35TIcSf0B06lJmqjHr+1ozVEZW2i4iiCNT3H87aYzLUB/jgM/pWNfpMM2XejW6n6cnDrFN/9L3kb9ooZxdR4g93ZBR0TzOM0WUtEkK82tQzTSqAEMINXA9ozYe4b3rqyJHnm0NuO9pF/JhzUXLBxMHWqbqstcDPm3uu2akz/6lTs/AbhUDCq/dkpmakKGdF9HBHYFg/c+kDM1NHUW/0HQNmCSGa9Wa1aO5UCLEOuE1LGxSR88HD2QcNCu02guhsIS1JOfX6vZkJgHaegxtf5bdof4cWR9cJId4GXtbS3ZKVUS/dkbEmHGE7E1/+tidLH+vR/I1RxKDg+fuvsw+aDEK/l/Odftd+iwg3vPI+YKWWGDfIetFtV6Y0ehxJF9HlT3d3X9MtWRmhy3pJCBFyV/DGCEsB/EbhTGC/lnf7D1LGjsk1fxtOOV20nZ9clrxmVK5J7+n7Brg/3HLCDrAWQlQAMwAtcsj6yt1Z6ZmpSnm4ZXXROi44z1z8i6tTR+qyyoDrhBChgx+aoKWnhzdACFEopbwdeAdAUej19wXZOy5bcDw1FucK5vU28e6D3Vm6vo63VtRwzzWpjDjfd0L4t9+5+dO/bGxuZDr3ijEJXD8lidwcE0YFysq9LNtUx1+/rA0cOaOhCJhzcRIz8pPolWngVI3KF4UOXvm0OmTZsSArVTn5xr1ZqUCiP8sBzAi1FXxLaPUSCyHEX4AXtHRKojL8lbsy1rW2vNbQO8vIm3OzMJt8J3Mt22RnaF8Tr9ydydRhZ2yLy33XpfLUf3Wjd5aRJevqeHelb7Hs3dNS+ePdmWccMT9/djr3T0/DZBS8t7KWZRvtTB1u4aU7M1HisLW80aC43384+4ii0EuXfZcQYmNry2zTWiv/zuKfApdrea//21bwylLblLaU2xxaCwCwaHkNLy6p/0cO6WNi0f3dOV2rctWjx3H55/dHDTDz2i+zOFTu4aZnyzld6wsMMSjw/O2Z5A+x8MelNt74tw2A0bkW/nxPJqWH3fz0uXLsLl85VrPgjXuzGHSuiaOVXn746PFoftUGvDk3c9UF51n0zp7nhRBz21Jmm/TYH052I7BPy/vZ5SkT8odYt7el3JZis6uBCtP49js3n22yk5GiMGVo/ULnayb4WszXPqsJVD6AV4XnPz6NlHDNxMRA/tXjfSuPXv2XLVD54ItA/uOnDd8ZC376Hylrgir/S+BXbS23zQ2ZEKISmA6BzQdML/w8o2fPDEOT59ZHgpJD7pBRulv2+vp//aoh7XMo22D/MQ/l1V5yMg2BAye1+7fsOdOuKtwT23CxcXnWnXdNS9H7+A8Cc4QQbXbERaQnE0JsA27CH12nCLIXP9i93GJs3hXZFhqL1NXy9YtEtM+NPVMeeEYE7veqBE4q1VPnlA1ahWjSPd1w4uU7MzLx7eoBYMdn9J2MRPkRM2WEEB8Bz2rplERl2KJ5Wa02TlpCY6d6afk1uuNdtc+NPZMVeEYG7jcovpNLg0m0CBLM0d9Fz2hQ3O8/1P2YonCOLvsWIcTmSL0j0rbsQ8AyLTEwxzT5nqtTG52Lbit5vU0hTwEd7T8ureRQfUi39nl07pkboPTNNpKVauBwhTcQNazdP2rAmaPaUQNis4nKwnsz16UlKRfosp4RQrwXyXdEVAH859P+J7BHy/uvy5InTh1m3RbJ92ikJCjccnlKg7whfUxcPjqBSptKQVF9D/SPdT6/1a1XJJOWVP+1DQrMnZ6KEPCPtfWr4v653hc9dfsPUhr8261mwR1XNXxnNLjn2tRVQ/uZ9KOpFcDDkX5PVNoxKeVgYB2QCqBKTl796AnP0VOec5p+smVow8DCvS5yexnZVeZm2z4X3dMNXDE6AZNBcP9rlawKOrH7vutS+dH3k6m0+Q6adrol+UOt9O9ppHCvizterMDtre/bf31DOtdNSuRIpZcvt9qREr5/YQInTnsZ0MtIjV1GZRg4Ic+y4+W7MwdS3+8fAMYKISLubY1aRyalvBbfukMBYHfK4kvmH+vrjMAWdKE8gSPPN2My+jyBr3zauCfwyjEJzJqaRG4vE0YDlJ308tmmOv7yVW3AZ6ChCLjh4mRmTE70eQJtKiv8nsClj/Wgzhl5BeiRZjy+9PHuKIrQphprgElCiB0RfZGfqFoyUsongQVaeu8Rz5rrnz7R5Hn2LUGvAI/+JXi9Y8fFbBaOFb/puTfJIrRjeyW+4d4H0XpntB2ajwBLtcT5vYz586ZHzyjs6Cy8t/tGXeUDPB3NyocoK4DfKLwRCEwX3/C95Enfu8C6NZrv7YjMm5H69eBzjXqj73N8f6CoEvUpDSGEDZ+nUFttbHzm1ow+fbINZdF+d0dh4hDr9hsuTtYvv9uNbwFn1NdhxOxMACnl1cDH+JXO4ZIll8w/dq7DJRObfrJzk5NpOPLJoz3MikA7orcGmCCEKIrF+2M2qSmEWAI8oaWtZpH3zrzuZ3VXYDYLx3vzs6t0lS+Bm2NV+RBDBfDzGPChluh/jnHS/NlpX8dYhnbDorlZm5IsYogu63EhxIeNPhAFYqoAQggJ3AwENHzm5KTJV45N3BRLOdoDD8/ptjIvxzRZl7UEeDzWcsQ8rkUIUYPPKNQG8IYnbkrv3y/b+F2sZYkXl45K2DIjP0Ff+cXAj/2jppgSh8AmEEKUArPxn2gpIONvC7KNZ4MSTB1m3fbbn3TLoz4e04ZvejcugYZxPRlMSvkw8FQgDZWvLbN9++dltvzOdmqZxSTsv7m52/qLh1snAdoUo4pv3f7SJh6NKvFWAAG8j2/tYQCvKo9sLnXt3rjbZTxU4bGqasdUBqtZeM/LNjgmDrWKgb1Mw4UInMuk8d9CiCfjIpyfuP+wUkoz8Dfg6njLEmP+Twgxr/nboktcbAA9/sUM1wO/wb9XYSenEri1PVQ+tIMWQI+UcgC+2MKrgPOAbvGVKCJIfMu1S/FNj78bjXn91vL/ANBkewl7s7QAAAAASUVORK5CYII=;labelBackgroundColor=none;spacing=0;" parent="1" vertex="1">
          <mxGeometry x="340" y="380" width="66.06" height="64" as="geometry" />
        </mxCell>
        <mxCell id="ZnrArUxqcu4yzv8pIiHy-3" value="10.63.192.216" style="shape=image;verticalLabelPosition=bottom;verticalAlign=top;imageAspect=0;aspect=fixed;image=data:image/png,iVBORw0KGgoAAAANSUhEUgAAAIAAAAB8CAYAAAChbripAAAABmJLR0QA/wD/AP+gvaeTAAAa9klEQVR4nO2deWBU1bnAf+fOmj0kISBBQCSEVdm3ANqqT63FhUXQ1/pqrVqXWkWsIn363Gr79KmtWmtVRG0VrVVLsVhBRQKyE7ZIEnbDThJCJsns97w/Zu7kZpgsk8yShPz+mnPuved+M+ebc77zne+cA2cRUkohpbxESvmmlLJYSlknpTwupdwupXxaSnlBvGXsIgpIKRUp5TQp5UbZPKullNPiLXMXEUBKaZJS3iSl3NWCig9ms5RylpRSxPt7RJNO+eWklInAz4B5wLlBlx2HTnoKC4ocnn1HvZbURMV9bnfFc8mIhIyURGUooATdvw14GvibEEKNvvSxpVMpgJQyDbgL+CWQ3eAaVC7fYt/xuw+qL6yq9aaHer5vD0PZYz/KODC8n2kcYAm6XAr8DviLEMIVBfHjQqdQACllFnA3cA/QTX9NlZR/sdVe9OR7p0fW2NXUlpSXmaqUPzAzrejSEQkjhSD4mWPAC8CLQoi6SMgfTzq0AkgpewD3Ab8AEvXXvCqHPiyo2ff7f9jGOt0yoTXlpyUptl/NStt++eiEISJIsYBy4GXg90KIU60pvz3QIRVASnkecC9wG2DVX3N5+e7t5bYjf15mG+NVMUbifUkWUXvXtJTNs6YkD1QUegZdtgFvAr8VQhyNxPtiSYdSACnlcOAB4AZoWLkOlyx5Y3lN+aLPbRNUFUM03m8yCtePL03eeNsVKTkmA/2CLjuBt4AnhRBl0Xh/NOgQCiClHAnMB2YSJLOtTt3x3MfVjn+urxsjZWy+jyJQr5+avP6ea1KyLSZxftBlF/A+8JQQoiQW8rSFdq0AUsrJwIPAD4OvVdWqRU+8W8XK7Y6hsZfMhyJQfzg+cfO8mWmJSRYRLIcK/Av4HyHE5jiI1yLanQL4HS8/BB4GJgRdVo9VeTc/8tap5M17XINjL13jTBps3bHgxjRHz3TD2BCXVwCPCCHWxlqu5mg3CiClVICrgP8BRgVddu896tmw4K1T5+w+7O4fc+HCYOJgy45f35ju6JluGMOZv+8a4HdCiH/GQbSQxF0BpJRmYA6wABgYdNlZethT+NCblX0PHvecE3vpWs+wfubSR25MP3n+OcYJcIZRuhV4Hp9TKa7exbgpgJQyiXp3be+G16jdvMe5+b/frhp0osqbHbKADkKfbEPZgjnp+8fkWsZzpndxJ/AM8K4QwhN76eKgAFLKVOBm4CFoOKZWpaz8Yqtjx9OLqy88XRfaXdtRyck0HHnkP9P3jMm1jCHIaQUcwOddfFUI4YilXDFTAClld+r99A0qV5Wc/HyLvfQ3i6tG1jpk8I/TqchIUSp+NStt56UjEkYIQVrQ5ePAn4DnhBDVsZAn6gogpewLzMXX3Ae7a8s+LKjZ/8IS2ziXS1pDFtBJSbKImrumpWyZNTV5kCII7uY0N/MfhBCV0ZQjagogpTwf3+TM7QT1fU6X3PP68prjb31uGx8pd21HJdGi1N49LXnzrCnJuYpCsKFbAyzEN3I4Eo33R1wB/GFV84AbCbJ+HS5Z/Nqymuq3v7CNVWPktesoaG7mW69I7mU2iPOCLjuBD4DHhRB7IvneiFWClDIfn2F3VXC5mrt2ybq6UE6SLnRo3sUHZqYlJ1pEsLPLDSwGnhZC7IrE+9qsAE25a0+e9mx79J3TxvUlzri5azsqQiCnjU/cNPe61ISURGVY0GXNzfy4EGJjm97T2gellEOAV4CpQZe8ZeWeNQsWVWUVHXQNaYtwXfj43oUJOx+anaZmpSjBUcsS+CtwvxDiRGvKbpUCSCmvxtcn6Y07V/Eh99pfLzrVZ/9xT3Af1kUEGJ1rLn3khvTa3t2NI2hYd8eAS4QQ34ZbZtgKIKWcCiwHzFre4Qrvup+/WNHnSIWnV7jldRE+F/Y3F794Z6Y3aAbyBDAy3NFCWAogpUzAFyWbq2W9/UVtwe8/OR3cDXQRZRSBunBu5prh/SxTdNkfCSFmhFVOmO+dTX3ls2StfVVX5ccHVaLc/FzF5O9OePRTzNOllGEZ3OEqwBztQ61TFj2x+NTkMJ/vIoJIibjlhfKBEvTewhvDKaPFCuCftg38219eYquOVuxdFy2n0qZmri927tBlXRrO8+G0AKMALby67pO1tSPCeVEX0eONz2r0cwkj/SujWkQ4ChBo7k/VqCWtjbXvIvJs3efMkxJt9tAEtNjjGo4CTAq8cK/rdBjPdRFlVIlSUa3u1mXlt/TZcBRgovbhi632lDCe6yIGbNnrqtElI6sAUsoB1EfvqKt3OXObur+L2LN8i10fXDLJH2TbLC2diw9olNMl99pq1Q6rAELAoN4m8odayR9ioc4pWV3kYE2Rk+9OxiUsLyKsK3bmAh58dZoODAaKmnsubAUoPeI5is4Z1BFIMAvGDrQwZZiVyUMtZKc3HL1OGGRh3gw4XO5lfYmTgp0O1pU4cbllnCQOnzqnmmR3yuIEixjkz8onggoQMABXbrd3iLF/TpaBqcOsTBlmZdQAMyZD817vnCwD07MSmZ6fiNMt2brPRcFOByu3Ozha6Y2B1G1jV5nrxKgBFr0C/Lm5Z5pVACml1pwA8OU2e59WSxhFLCbBiP5mpg63ctFwK+dktE1PLSbB+DwL4/MszJuRxuFyLwVFDlbtcLBljwu3t/21Dl9td5pGDQhM0LbIEGz2byGl/AHwKYAqOTH2niPtJk4/J8sQqKRJQ6wkWmITZWZ3STaVOlm108HqIicnqtpH69Czm+H4p4/36KHLOkcIcaypZ1rSBQQ06XC5Zx+cEcEaMwwKDD/PzJShVsYPsjD4XFNc5EgwC6b4uxeAfcc8rNrhYEOJk027nXjjtNbn2ClvD68qjxgUoU3LTwQ+buqZsBRgfbHT2Qb5WkVGisKkwVamDLMwcbCVJGv7iyXt39NI/57J/OSyZE7XqmwsdbK+xMnK7Q4qbbHVhrKT3gP9ehg1BcinLQogpWzgVly+1ZnVZglbSP+eRuZOT2Pi4ODVVO2btCSFS0cmcOnIBOZfD//cUMdLS6pjpghrvnV6+vUIVGuzdkCTfycp5ThgvT9pn3DfUYPbI81NPRNpzj/HyJRhVsblWRg9wIyxBdZ8PHG5JYX7XGwocbJqh4N9x2LrWxjez1y66P4sbZGtG0hvajOr5rqAwPCvqlYtdXvkhRGQMSz2HvWw92gNi5bXkJakMHagz+ibOtxCVmr7GJFW2lTW7vIZhWt3Oah1xG+EUPSda4CUVPt3NzMBo4GCxu5vTgECTci2/e6Y7oQ1bXwiZeUetu93ofpbz9O1KisK7awotPP0+5DX28T4QRamDrNywXlmRIwaB1WFksNuCnb6hoXFh9zIEHVuMfkcUEJAwc7YrPlUVZRKm7onM1XR9ljIpw0KoJsAciRFQL4WM21CIqMHmKmuU9lQ4qRgp+8fVl3n0wZVwq4yN7vK3CxaXkO3ZIXRuT5lmDrcQkpCuMFOTXOqRmXzbp8cX+9wYLOH7tP1Rqs2NH33q9qYKQDAlr1O22UjA7P1TdoBjSqAfyu2HC25eqd9QGTEC4/UxHqjKvift6vMHbjvVE1966AokJdjYupw31BtUG9T2K2DKqHkkJv1xU4Kihxs3+dCbaRl1+yUWLdEjbGi0JGqVwAppdLYRhRNtQD1E0Buufd0rRoXBdCjKDD4XBODzzVx25UpHK7w+ipop4N1xU5cHl8NqWp96/Dqv2z0yjAwYXDzDiOttVlf4mTVDifl1aEdPFazYFwTcwvx5psiRx71E0PdgDwg5FKyphQgYADuPeo5CsRdAYLJyTQwPd/nu3e4JBv93rngyjtS6eWjNXV8tKYOs0kwJtdM/pAzZwN3HKy3N4LRlGjqMJ8Tymxsv6OROpdMtDtlSYJF5Pmz8mmFAgRagJU7HO332/qx6rxz82f7mu9QRprLLfnmWyfffOvkmSbKC+5G4uV1bC3FZa7jIwdYNAWYBLwe6r6QCuDfxiUQX/7lVnvwluvtGkU07Cr0w7RvvnVQ5wzdmeunjS8abiUzNbKGZCxZud1pHNmCiaHGWoCJ+Nf2q5Ly/cc8fSMrXmzJSFG4alwCV41LwOGSrC9x8txH1Rwq9zlpRg8wc/sPUhhxvgVDx63zBny1w9H/vumBjc5zpZTZoRaQNvZ1AxpztNKzNwryxQ2rWXDRcCu9MusNt6F9zYzO7TyVD3C43NNTVdHWCQp0Q3o9zSrAhmK3PcKytQv0jpv2N7MfGcrKPQd1yZDdwBkKIKU0AOO09PLCuphNAMWSBgrQSTXgmyKnW5dsmQIAFwLJ/s/OrXtdHSr+r6V00jpvwPKtdn1wyGgpz9yJLZQCBDTFVidLnB7ZseZjuwiw44BrgJRo6wUs+CaGGtCkAmzb5+ywR6E0i67d76xdgKpiqKxtesVQKAUIeAC/2ObotOv/ZIPPnVQDgMI9Tv2Oo00rgJSyD/Xn7MnVRY7g0zA6DWeDEQiwotChX8Y3KfggzOAWIKAhLq/cX2lTM6MpXDxp0AJ0YgX4psgxENAmRrII2pI/WAHqJ4COeA5HV7T40pkrXU+tUyY7XFLvzGvQDTTaAhTsbP8TQG3iLOkCAEoPu/RrAybprwUUQEqZDAzX0l8U2nPoxMhGPndGvtrm1M/5NNoCTMA/OSShYu8xT7/oixY/zhYjEODLbQ79ZF6e/+wGoKECBDTjeKVnb6zO4Osi+hwq9+SoKtqppgLdaWx6BQj0DRtL3R3+UOTmOJu6AIBD5Z4DumTgz65A4Mi28VrmvwvtGTGTLE7Is0wDvil26o+8b6gA+Iw/bYsR5+bdZ8MWMHpXcOfXgBVb7PpFvWOl9M3xaAqgmwBSd7vOgi3gzoZ4AD3b97typaTWn7TgP5zzDAXYedBVEWPZ4sLZNAoA8KoYq2rVUl1WPoRQgC+3O9vF9O+pmthtuhDt+o/ld2mKrfvOnBhSpJS9gMA4sWCno12czTt/4Skefaeq0cUZbUWNgRF44LiHBxeeYuHnNc3fHAO+KHQk65KTpZTCiG4LWLeXAyervP1iLlkIVAlLN9SxYqudORcl8dP/SIna5hCR7gKqalRe/7eND1bVxm23kFCs2hmYGDLgmxgaYEQXLfrdcc8hoF9cpGsEh0uyaHkNn6yt49YrUpg1JSki0bvRMAIdLsnir2tZ+LktrkvEG6PWIVOcLrnbYhbaKG+SEd34v/iwu93ulFhVo/LMh6f5W0Etd1yVwqUj289ARZWwbKOdP/yjOmpdVqQot6kVOZkGTQHGG9Gt+TtS4WlfqxxDoPWr4/LquPfaVPJ6t27JVqTiAdaXOHnh42pKD7ubv7kdUGlTXTn1ayL6GoFAxEhWirF9q6+ODSVOfvS/J/n+iAR+eW0qvcLcF7CtXcC+Yx5+/0k1q4tieth3m+mWouj/Md2MQAX+fQBGDDB1qBWQqoQVhXZWFzmYc1ESN1+WTHILN4aQrdSAE1VeXvvMxidr6xpdSdyeyU5X9KHiRxTqN4GiXw/jYKu58Q2F2iuaoXj1YydY/HX4lndLgkLt/nfMePIEH63pmJV/QT9zidkg9MP8rQrwkZYSkPGrmekbYi9aZDhd6zMUZz11ghWFTa9oa6knUJXw6QY71zx2nBeXVDe6srgj8ORP0quCshYr+A4jLtFyrp5gHZvb29ShF4QePOEzFG9+rpxt+10h72mJEbi+xMkNvz3JI++coqK6A/7ldcyekrQuJ9M4Xpf1VyHEHkUI4QV+hm9POYQQSW/PyxIpCUqHPxZm+34XtzxfzoMLT3G4oqF925QJUFzm5vY/VHDnSxXsOdIxrPumGNjbtP+BWWn6A6hPAHPBPxcghFgNzNOumg2i/4cLsvcoCh1mVNAY0m8oznjiBM/+/XRgd69Q8QDHq7w8tbiKHz97kk27Y74rblRIsgrborlZUojAek8PMFvbK6CBb1VK+Tpwi5b+apt95bzXT10cK2FjQXqywm1XpvDuV7WBDSLyh1rJ7WXkvZW1ODvQIRHNoQjUpY/32Nwj3aA/RewXQoiXtESwAliBr6lfHi6f/ah63Xtf1YTcXKCL9s0Lt2eunDLMcrEu6x0hxE36exoMmoUQDuBaqN9Z4v7rUi8Y3MekX2DYRQdgRn7C+inDLBfpsrYAtwffd4bXRAhxFJgJOH1pkt66v3tCtxRRGXxvF+2TgTnGffNndxtCfQt/HLhGCHHG2Dik20wIsRa4V0sbFHq//1CPA53BKOzspCUaqt5+INsgRMDF7wauF0IcCnV/o35TIcSf0B06lJmqjHr+1ozVEZW2i4iiCNT3H87aYzLUB/jgM/pWNfpMM2XejW6n6cnDrFN/9L3kb9ooZxdR4g93ZBR0TzOM0WUtEkK82tQzTSqAEMINXA9ozYe4b3rqyJHnm0NuO9pF/JhzUXLBxMHWqbqstcDPm3uu2akz/6lTs/AbhUDCq/dkpmakKGdF9HBHYFg/c+kDM1NHUW/0HQNmCSGa9Wa1aO5UCLEOuE1LGxSR88HD2QcNCu02guhsIS1JOfX6vZkJgHaegxtf5bdof4cWR9cJId4GXtbS3ZKVUS/dkbEmHGE7E1/+tidLH+vR/I1RxKDg+fuvsw+aDEK/l/Odftd+iwg3vPI+YKWWGDfIetFtV6Y0ehxJF9HlT3d3X9MtWRmhy3pJCBFyV/DGCEsB/EbhTGC/lnf7D1LGjsk1fxtOOV20nZ9clrxmVK5J7+n7Brg/3HLCDrAWQlQAMwAtcsj6yt1Z6ZmpSnm4ZXXROi44z1z8i6tTR+qyyoDrhBChgx+aoKWnhzdACFEopbwdeAdAUej19wXZOy5bcDw1FucK5vU28e6D3Vm6vo63VtRwzzWpjDjfd0L4t9+5+dO/bGxuZDr3ijEJXD8lidwcE0YFysq9LNtUx1+/rA0cOaOhCJhzcRIz8pPolWngVI3KF4UOXvm0OmTZsSArVTn5xr1ZqUCiP8sBzAi1FXxLaPUSCyHEX4AXtHRKojL8lbsy1rW2vNbQO8vIm3OzMJt8J3Mt22RnaF8Tr9ydydRhZ2yLy33XpfLUf3Wjd5aRJevqeHelb7Hs3dNS+ePdmWccMT9/djr3T0/DZBS8t7KWZRvtTB1u4aU7M1HisLW80aC43384+4ii0EuXfZcQYmNry2zTWiv/zuKfApdrea//21bwylLblLaU2xxaCwCwaHkNLy6p/0cO6WNi0f3dOV2rctWjx3H55/dHDTDz2i+zOFTu4aZnyzld6wsMMSjw/O2Z5A+x8MelNt74tw2A0bkW/nxPJqWH3fz0uXLsLl85VrPgjXuzGHSuiaOVXn746PFoftUGvDk3c9UF51n0zp7nhRBz21Jmm/TYH052I7BPy/vZ5SkT8odYt7el3JZis6uBCtP49js3n22yk5GiMGVo/ULnayb4WszXPqsJVD6AV4XnPz6NlHDNxMRA/tXjfSuPXv2XLVD54ItA/uOnDd8ZC376Hylrgir/S+BXbS23zQ2ZEKISmA6BzQdML/w8o2fPDEOT59ZHgpJD7pBRulv2+vp//aoh7XMo22D/MQ/l1V5yMg2BAye1+7fsOdOuKtwT23CxcXnWnXdNS9H7+A8Cc4QQbXbERaQnE0JsA27CH12nCLIXP9i93GJs3hXZFhqL1NXy9YtEtM+NPVMeeEYE7veqBE4q1VPnlA1ahWjSPd1w4uU7MzLx7eoBYMdn9J2MRPkRM2WEEB8Bz2rplERl2KJ5Wa02TlpCY6d6afk1uuNdtc+NPZMVeEYG7jcovpNLg0m0CBLM0d9Fz2hQ3O8/1P2YonCOLvsWIcTmSL0j0rbsQ8AyLTEwxzT5nqtTG52Lbit5vU0hTwEd7T8ureRQfUi39nl07pkboPTNNpKVauBwhTcQNazdP2rAmaPaUQNis4nKwnsz16UlKRfosp4RQrwXyXdEVAH859P+J7BHy/uvy5InTh1m3RbJ92ikJCjccnlKg7whfUxcPjqBSptKQVF9D/SPdT6/1a1XJJOWVP+1DQrMnZ6KEPCPtfWr4v653hc9dfsPUhr8261mwR1XNXxnNLjn2tRVQ/uZ9KOpFcDDkX5PVNoxKeVgYB2QCqBKTl796AnP0VOec5p+smVow8DCvS5yexnZVeZm2z4X3dMNXDE6AZNBcP9rlawKOrH7vutS+dH3k6m0+Q6adrol+UOt9O9ppHCvizterMDtre/bf31DOtdNSuRIpZcvt9qREr5/YQInTnsZ0MtIjV1GZRg4Ic+y4+W7MwdS3+8fAMYKISLubY1aRyalvBbfukMBYHfK4kvmH+vrjMAWdKE8gSPPN2My+jyBr3zauCfwyjEJzJqaRG4vE0YDlJ308tmmOv7yVW3AZ6ChCLjh4mRmTE70eQJtKiv8nsClj/Wgzhl5BeiRZjy+9PHuKIrQphprgElCiB0RfZGfqFoyUsongQVaeu8Rz5rrnz7R5Hn2LUGvAI/+JXi9Y8fFbBaOFb/puTfJIrRjeyW+4d4H0XpntB2ajwBLtcT5vYz586ZHzyjs6Cy8t/tGXeUDPB3NyocoK4DfKLwRCEwX3/C95Enfu8C6NZrv7YjMm5H69eBzjXqj73N8f6CoEvUpDSGEDZ+nUFttbHzm1ow+fbINZdF+d0dh4hDr9hsuTtYvv9uNbwFn1NdhxOxMACnl1cDH+JXO4ZIll8w/dq7DJRObfrJzk5NpOPLJoz3MikA7orcGmCCEKIrF+2M2qSmEWAI8oaWtZpH3zrzuZ3VXYDYLx3vzs6t0lS+Bm2NV+RBDBfDzGPChluh/jnHS/NlpX8dYhnbDorlZm5IsYogu63EhxIeNPhAFYqoAQggJ3AwENHzm5KTJV45N3BRLOdoDD8/ptjIvxzRZl7UEeDzWcsQ8rkUIUYPPKNQG8IYnbkrv3y/b+F2sZYkXl45K2DIjP0Ff+cXAj/2jppgSh8AmEEKUArPxn2gpIONvC7KNZ4MSTB1m3fbbn3TLoz4e04ZvejcugYZxPRlMSvkw8FQgDZWvLbN9++dltvzOdmqZxSTsv7m52/qLh1snAdoUo4pv3f7SJh6NKvFWAAG8j2/tYQCvKo9sLnXt3rjbZTxU4bGqasdUBqtZeM/LNjgmDrWKgb1Mw4UInMuk8d9CiCfjIpyfuP+wUkoz8Dfg6njLEmP+Twgxr/nboktcbAA9/sUM1wO/wb9XYSenEri1PVQ+tIMWQI+UcgC+2MKrgPOAbvGVKCJIfMu1S/FNj78bjXn91vL/ANBkewl7s7QAAAAASUVORK5CYII=;labelBackgroundColor=default;" parent="1" vertex="1">
          <mxGeometry x="340" y="540" width="66.06" height="64" as="geometry" />
        </mxCell>
        <mxCell id="ZnrArUxqcu4yzv8pIiHy-5" style="edgeStyle=orthogonalEdgeStyle;rounded=0;orthogonalLoop=1;jettySize=auto;html=1;exitX=0.5;exitY=0;exitDx=0;exitDy=0;entryX=1;entryY=0.5;entryDx=0;entryDy=0;opacity=50;" parent="1" source="ZnrArUxqcu4yzv8pIiHy-4" target="ZnrArUxqcu4yzv8pIiHy-1" edge="1">
          <mxGeometry relative="1" as="geometry" />
        </mxCell>
        <mxCell id="ZnrArUxqcu4yzv8pIiHy-6" style="edgeStyle=orthogonalEdgeStyle;rounded=0;orthogonalLoop=1;jettySize=auto;html=1;exitX=0;exitY=0.5;exitDx=0;exitDy=0;entryX=1;entryY=0.5;entryDx=0;entryDy=0;opacity=50;" parent="1" source="ZnrArUxqcu4yzv8pIiHy-4" target="ZnrArUxqcu4yzv8pIiHy-2" edge="1">
          <mxGeometry relative="1" as="geometry" />
        </mxCell>
        <mxCell id="ZnrArUxqcu4yzv8pIiHy-7" style="edgeStyle=orthogonalEdgeStyle;rounded=0;orthogonalLoop=1;jettySize=auto;html=1;exitX=0.5;exitY=1;exitDx=0;exitDy=0;entryX=1;entryY=0.5;entryDx=0;entryDy=0;opacity=50;" parent="1" source="ZnrArUxqcu4yzv8pIiHy-4" target="ZnrArUxqcu4yzv8pIiHy-3" edge="1">
          <mxGeometry relative="1" as="geometry" />
        </mxCell>
        <mxCell id="ZnrArUxqcu4yzv8pIiHy-4" value="" style="shape=image;verticalLabelPosition=bottom;verticalAlign=top;imageAspect=0;aspect=fixed;image=data:image/png,iVBORw0KGgoAAAANSUhEUgAAAIAAAAB8CAYAAAChbripAAAABmJLR0QA/wD/AP+gvaeTAAAW2ElEQVR4nO2deXxU5dXHf+fOTGaSzGSys8SyCAFEtrDIEqDyqt0U+lZBFpdKW1esryKogGKrVEqlrrVqrQpoFQStoi1V1rIjAgkQCYGwEwgkIclkMvs97x8zd3IzmUxmJrPCfD8fPh+e+8x97pk8Z+597jnnOQe4gmBmYuYbmPl9Zi5l5kZmrmTm/cy8kJkHRFvGBGGAmQVmHs/Mu7lttjLz+GjLnCAEMLOKme9m5kN+TLwne5h5EjNTtL9HOLksvxwzpwD4DYBZAH7g0W0+c9G+b0uJ2X7snEOdliLYfpAj2G8YlJypSxGuBSB4fL4YwEIAK4lIDL/0keWyUgBm1gOYAeD/AOQ26wNq1u41HVj0Sf3AWqMj3dv5XTsoTv/+zswT/buprgOg9uguA7AIwIdEZA2D+FHhslAAZs4G8DCARwBkyPtERtX6IlPJgo/rChpMYpo/42WlCVWzJ+pLbhyUXEAEz3POA3gFwOtE1BgK+aNJXCsAM3cA8BiA3wJIkfc5RJxZtaXh2KtfGIZZbJwczPj6VMHwxCT9/h8PSe5LHooFoArAGwBeJaJLwYwfC8SlAjBzdwCPArgPgEbeZ3Xg1LK1hoq/rTEMdYhQhuJ6qWoyzhiv2zNpjLaXIKCjR7cBwPsA/khE50JxvUgSVwrAzP0BzAYwFWg+uWYrH353bUPVkm8MI0QRinBcX6Uk6103anff9xNdnkqBbh7dFgBLASwgotPhuH44iAsFYOYCAHMATISHzIZG8cBL/6w3f7mrcShzZL6PQBBvH6vd9cjPdblqFfXw6LYCWAHgD0R0OBLytIeYVgBmHg3gSQC3ePbVGsWS5z+qxab95msjL5kTgSDeMjxlz6yJ+pRUNXnKIQL4N4DfEdGeKIjnFzGnAC7Dyy0A5gIY4dEtnq917Jm/9JJ2z1HrNZGXrnVGXaM5MG+a3twxXTHMS/c6APOJaEek5WqLmFEAZhYA3AzgdwAGe3Tbys/Zv5239FKnI2dtV0dcuAAYeY36wNPT0s0d0xVD0fLvuw3AIiL6MgqieSXqCsDMSQCmAJgHoJdHt6XsrH3fU+/XdD1Zae8UeemCp1+3pLL509Iv9uikHAG0WJQWAXgZTqNSVK2LUVMAZk5Fk7n2quZ9MO45atnzzLLaPhdqHbleB4gTuuQqTs+bkn58aL56OFpaFw8CeBHAR0Rkj7x0UVAAZk4DMB3AU0Dzd2qRuWZ9kfnAwuX1A+savZtr45W8LEXF/DvSjw7NVw+Fh9EKwAk4rYtvE5E5knJFTAGYOQdNdvpmkysyLn6z11T2wvLaAqOZPf84lxWZOqH6iUn6gzcOSh5EBL1HdyWAtwC8RET1kZAn7ArAzF0BzITzdu9prj29akvD8VdWG66zWlnjdYDLlFQ1NcwYr9s7aay2j0DwfMxJZubXiKgmnHKETQGYuQeczpn74fHss1j56N/XNlQu/cYwPFTm2nglRS0YHx6v3TNpjDZfEOC50G0A8B6cbw4V4bh+yBXAFVY1C8A0eKx+zVYufWdNQ/2y9YZhYoSsdvGCZGa+9yfazkkK6u7RbQHwCYDniOhoKK8bsklg5kI4F3Y3e44rmWtX72z0ZiRJIEOyLs6eqNemqMnT2GUDsBzAQiI6FIrrtVsBfJlrL9bZi5/9oE6567AlaubaeIUIPH54ynczf5GWrEsR+nl0S2bm54hod7uuE+yJzNwXwJsAxnp0OU5X2bfNW1KbXXLS2rc9wiVwMm5g8sGnJuvFbJ3gGbXMAP4B4HEiuhDM2EEpADNPgPOZJF/cWUvP2HY8veRSl+OVds9nWIIQMCQ/qWz+1HTjVTnKQWg+d+cB3EBE3wc6ZsAKwMxjAawFkCQdO1vt2PnA69VdKqrtnQMdL0HgDLw6qfT1h7IcHh7ICwAKAn1bCEgBmDkZzijZfOnQsvXGLa9+Xuf5GEgQZgSC+N7MrG39u6nHyA5/RkS3BTROgNedjKbJx+odps2JyY8OIkOY/lL16FMX7HIX863MHNCCO1AFmCL9x2jhkueXXxod4PkJQggz6NevVPViQG4tnBbIGH4rgMtt6/61v7HaUB+u2LsE/lNjELN2lVoOyA7dGMj5gZhhBwOQwqsbP99hHBTIhcLNz4Yl487/0UKraVunF62sxbbvLV77uuYq8fqDWUHJcKLShkfeat10P2eyHiP7eHd5nLhgx6KVtThb5Qj4uu/+pyF3RB/3C1kBM6f4u2chEAVw3+4vNYiHLTYuCODcsJKhFfDsHelQKvxb0yYnta4kKiUhLzu4G1ujxXdsR5ZO0erYedkKzPyFHo+/E7jvp+iYpTcz6l2bWFQAhgH4rz/nBrIGGOW+YLm1LjARw0uOXuH35McyHTOCUzyRIVTXi0dkhwr9PTeQO8BI6T/ri0y6AM6LOFY7w2zlVvttjtb7RJFR3xhclJbR3Pq4AGCythxblyyAQqC7e8utDT8a7H68hFYBmLknmqJ3xK2HLPm+Ph9tPt3aiMWfBneTOnbejnFPng+xRE6eWdZyB9nmFzshVdN+DVi716SXKcAoZhb8iTf09xHg1iiLlcsNRv82WSaIHDtLLfkApLjCdAB+hc0HrABlFfa42/92JdBoEVNNFpbHCvj1GPB3DeBeAG7ab4q5d//KWgf+sLzW3S6viEqAbdQ5dNp6YXBPdR9XsxDA39o6p00FYOZmt5MNxaYuQUsYJuqMIj7bFvdb9dvNxv0W1eCebnuAX3cAfx4Bo6TPiYwLpy44PFOuJIgRNhSZ5LumejCz51b2FvjzCHBr0tkq+zGgRQRr2BjTT4P7fqqDPqV1Pa03ibjzTxdb7b//ZzrcPCy4SPO319TjX9+avPalpQj4cHaOz/PPXbJj8af1OHLW1upnXlxVB5VrFmob2rdJ6PwlRweHyBUKgSS3/EgA//R1TkAKsKvU4t1+GgZUCsIL92QgRe37FSm1wXe/PlUI2rLny6wsCGhz3LxsBeZO1mP6S1WtfubLXaF9dJ2+6DjRrYNSUoBCtKEAPh8BzCyZFQEAa4ss2e2W0E90KdTm5McDnTIju2be9r1FvgJucx3Q1h2gAE2bOUzFx6JnALI5GCZLS0ubweT7tmmxBW/Zs9hbt+wxo9VxtRoBQqCO9hCxdq+p4x3jUqXmkLYcQ20pgPv1r9YoltnsPDAEMgbFxmIz5rwfeC6mVz+vx6ufh36XVZ1RbNVi+NkzueiaG539LiWnrD09HENDAGxp7fNt6an7FlJ83Ba3mbCuJEQRQo1B9Nsg1JYCyBxA5lRfH0wQO+wttxhkzeAUwJWKLU9qbj1o6hkC2RJ4oEsWkJbi/BcKpxAArNtnlvtqCl3ZV7zi60HV5ACycXmdUYyoAtgdwKHTTe/PFdWBR8pEC6O5aeHZYPLtIv7Xcx3cE1962oY7fNg0/GV7ibk3nI4hJZwJLnsD8LqVzJcCuBeA5efs5wBEVAHqG30beGKZu16MrtyNVk4xWfhwspp6uw4VIggFcN8BNh0wh+yF/Itnc0FxvDG4qt6B11bXo6g8tvNFl562Vhb0VEsKMArA3719zqsCuNK4uOPLNxSZQmb/z8tShiQCJlrkZSuw4O4M3PJsZbRF8cmm/RZlgR+OodYWByPh2tsvMqqOn7d3Da148U2wsXuRZOMBs9wxlM/MXn04rSmAW2PO1djLQylYgshwtsreURQh7RMkyF7p5bSpAN+W2ry7wxLEPKer7CdlTa+PgRYKwMwKANdJ7bX7GiPmAEoQWraXWOR+aK8K4G0ROBCA1vV/S1G5NaYjgGORB2/WIVPnXCcYTCJe+yIiGd9asLbI1GFqc8eQxjMPoTcFcGuKoZEPW+yJWnqBctPgZLcz6GKdI2oKcOCEtSczGoighTOZxxA48xW78bYGaHIAHbMkHEBxjChCUWP0vWPImwK4LYDri81B1dpJEDvsO2qR3358KwAzd0FTnT3eWmL2rIaRIM5Yt88s38Y3yrMQpucdwK0hVgcfrzGIwe2TThAzbC8x9wIgedKy4ZGS33MR2OQAqrCfBRDTxRniAU0S4dbCpqjkL3Y0wiGLJDOYRDhE54/S6CXkrb0YLaw1W7lMk0TSxBcCcNcy8lQA9x1gy8HQOYCuZHTJAuZNaUqO/u/dJjhkO5dvnh9+n0LZWev5Ad3VkgKMgjP/MADZI4CZtQD6S+31+0x5SHBZsLHYIv+hN1sIytcAI+C6IzBQXX7e3i38oiWIBBuKzXJnXm9X7QYAzR8Bbs2orLGXMyOxAAwBnpZAm49Q83BxpsqeJ4o450pHT3D+2L8EmiuAewG4u8yW2GkZIsxWjomNq2eq7Ce65CqlegSFcCmAALhLtg2XPvz1PlNmxCVMEFa2l1rkIUzuu720BugPuOvXWPYcie0UMAkCZ91ekzwgZBgzq4EmBZA5gMQj1iDLrSeIXfYft+Yzw+hqquEqzimtAdwKcPCktTrCsl12vPUvA7TJTjOKr2xlkcQhQllrFA9kaAUpv2MhgB0tFGDDfotnccMEHhChmXUPAE5U2rH3qPMx+83e2AyiKjpmqR83wH1zLwSwWMnMnQG43xO3HDQnzL9+ILfuAcDn2xvdChCrrN9n1soUYDQzkwBZClibAycuxnmp1gSts/lgC8dQTwGyaNFTlfYz0RAsQWQwmllnsfIx2aFRSsje/0vP2q7M/GpBIE9LBzjXAPFAlUGszstSSK/5w5WQ7fmrqLbH/o6HGIAZMWHdC4Yag2jNy3JPc1cBgDtiJFunjJ8tuAmCIkMnqORNAYD7vX9QT5Wq5SkJLidy04UOsmaFAGCX1OrWQXmNJsm/ShMJ4o8B3ZIOJylI/ppfJAD4TGoRkPnExPRvIy9agkiw4J70Wo9DywU4ixG7Y8QmjNAMy79KldgQepkxeUzqzrws5XDZoX8Q0VGBiBwAfgNnZWoQUeqyWdmkSxZiqixMguDpdZXq+OxJenkB6gsAZgIubyARbQUwS+pNUtDVq+blHhUEhPytwC7GhnOkPcTTd0jVkGHJzGx2bQ8DnLmDJkvFpt0xgUT0GoB3pXa2Xhjyp19ltJpgMFg2Fpvb/lCMEy/fQSCIK+fllqpVzRZ+jxHRJqnRLPSbmTVwlhuTtofz4s/qd368scFrcoFgUCoIo69VI1MXpVyq7aTGIGJriQV2H4WnYoVX7s/aNKaf+nrZoQ+I6G75Z1rE/jNzJwDfAejsbMN41+KLFYdO2RJRQnHEbYXJu+ZOybgOTXO8F8BoImrmq27xMySicwAmArA420hd+nhOcoaOAq9omCAq9MpTHpszOaMvmia/EsDPPScfaCVFDBHtAPCo1FYIuGrFUx1OhGNRmCC06FMUtctm5yqI3CZ+G4Dbicirp7fVBzERvQVZ0aGsNGHwy/dmbg2ptAlCikAQV8zNPqpSQL4R5LdEtLnVc9oY82HIUo2P7qcZe+c47fZ2ypkgTLz2YOaWHL1iqOzQEiJ629c5PhWAiGwAbgcg3T7osVvTCgp6JHlNO5ogekz5oXbLyGs0Y2WHdgB4oK3z2nwXI6LzACbBtSgEkPz2I1lpmTohET0cI/TrllQ2e2LaYDQt+s4DmEREbdZ48utlnIh2ArhPaisEyvtkbu5JhYD4CIO5jNGnCpf+/mhWMgApHZgNzsk/68/5fltjiGgZgDekdoZWGPyXBzO3+TglQZhRCLB/+nTuSZWC5LmcH3KZ9v0iUHPcYwA2SY3r+mh+eN9PdSE3Fyfwj7ceztmWoRUGyQ79hYi8ZgVvjYAUwLUonAjguHTs/p/phg3NT/o+kHEStJ97btJuG5yv+qHs0HYAjwc6TsAGeSKqBnAbAClySPPmw9npWWlC69URE4SUAd2TSn87Ia1Adug0gF8QUcA7U4LOA8TMdwL4QGobGsUDN82r7G2zc1KwY4aD3lep8NGTOfhqVyPe/boBMyboMLSnGvpUAXcvvojvT9kwtp8GU69PRY9OKqSlEgyNjLPVdqzbZ8aHGxqi/RWakZ0mXFzzfEebIECqDmoGMJaIdgczXtAuOSL6EMArUluXIvR/c0bmzmDHCzedMhVYOisbPTqqsKXEjI37zbA7gAkjUvDy/Zno0UmFDcUmvPt1A9buM8FqY/x8ZHA1h8OFUiHYVszNrZBNPgDMCHbyAf9qB/tiFpyl5X8MAAU91WMfvEW35c2vDGPaOW7IGZKvxorNRixeVQd5PMecyXrYHYypiy6gur55JVBtcmy5rN/5v4wd6amC3NjzMhG91+oJftCub+gKJ5sGwL3d6Dc/1o0o7KvZ355xw0FtgzNXj2cwDwMQGRC9VIFtaKMsbST51Y902wZ0V8snfwOAJ9o7brtVnIhqANwKuJMPqF55ILNjx0yF97qqUeLwWZvXvfpff2dCkpKwal4unpykx40FycjRx9YGqet6aw7OGK+T2/hPAphCRO02xIXkHkdExQDuhvMHBYGQu/zJnCq1sm1TZKS4WOfdk71isxFPL72EUxftmDgmFYt+lYH/LOiA92dmY+DV0V/P5qQrLrzxUGYWnFk9AMAE4DYiCkltupA95IjoMwCLpbYuRei3ZFZ20IuTkOMjgmvNdyZMf6kK1z9xDg//tRqrthrRt4sKf3koCx2iWCBKqRBsK57KOe9K7ybxayLaE6prhHqV8xSANVKjV55q9CMT0lr1RccaRjNjxyELFq6ow4cbjEhRE4b1il7ClPcezdqpTxXkBTteJKKPQ3mNkCoAEYkA7gDgrl79y5u0I8f20xSH8jqhZHgfNRRe/grpqc6D0crx88j/pm2+tptK/ja1DsDcUF8n5EXuiegSM08AsBNw1rD/832ZnSc8e+HcuUv2Tm2cHnEW3pMBhwjsOWJBRY0DzEC/bioMzVej/JwdWw5GPgR8RG/1gV/eoJXv4jkBYGooFn2ehOVFl4gOAfglmhaFOSvn5dSpVS2DEqPNX78yYP9xK/p2ScLksamYODoF+hQBf/3KgF+/XAWLLbJ3gA56ZeXrD2XmomnR1wBgAhGFxdQe1pTwzLwAwDypXV5h33b7wgs+69lfySQlkXndCx3LU9Ukle1lOF/3PgnXNcNt6poP4Cup0aOzsnDWrfGzKIw07z2as1s2+QCwMJyTD4RZAVyLwmkA3O7iqeO0o8YN0BSF87rxyKzb0v57zQ+U8kXfN3D+gMJK2I3dRGSA01Io7TZWvnhvZpcuuYrT4b52vDCyr2b/1Ou18u13R+DcwBn2fRgR8XYQ0WE4LYUi4ExE8fGTuY2JbCRAXpai4rUHMjsDkMyODXD69j2TOYSFiLm7iGg1gOeltiaJen8wK+eKfhQkJZH54zm5tQJBqs/MAKYTUUmkZIi0v/P3AFZJjas7KUfNmaz/b4RliBmWzMz+LlVNfWWHniOiVa2eEAYiqgBExACmA3Br+MTRqaN/Oizlu0jKEQvMnZKxqXeearTs0GoAz0VajohHPBBRA5yLQukZp3j+7vSru+UqT0Valmhx4+DkvbcVJssnvxTAXa63pogSlZAXIioDMBmuxMUEZK6cl6u8EpRgbD9N8R/vyeiNJjO8AU73blRKjEe1OCQzzwXwB3cbqHlnjeH7v60xFDJHV7ZQo1aR6YXpGbuu768ZhaYVvwjnvv2vfJwaVqKtAARgBZx7D904RK7YU2Y9svuIVXmm2q4RxfhUBk0SObrnKswjr9VQr86q/kTuukwSzxDRgqgI5yLqf1hmTgKwEsCEaMsSYf5MRLPa/lh4iXrYq2szw+0AXoArV+FlTg2Ae2Nh8oEYuAPIYeaecFoMbwbQHUBGdCUKCQzndu0yONPyfhQu124w/D8Z0PDtOvR6mAAAAABJRU5ErkJggg==" parent="1" vertex="1">
          <mxGeometry x="500" y="460" width="66.06" height="64" as="geometry" />
        </mxCell>
        <mxCell id="ZnrArUxqcu4yzv8pIiHy-10" style="edgeStyle=orthogonalEdgeStyle;rounded=0;orthogonalLoop=1;jettySize=auto;html=1;exitX=0;exitY=0.5;exitDx=0;exitDy=0;opacity=50;" parent="1" source="ZnrArUxqcu4yzv8pIiHy-9" target="ZnrArUxqcu4yzv8pIiHy-4" edge="1">
          <mxGeometry relative="1" as="geometry" />
        </mxCell>
        <mxCell id="ZnrArUxqcu4yzv8pIiHy-9" value="" style="shape=image;verticalLabelPosition=bottom;verticalAlign=top;imageAspect=0;aspect=fixed;image=data:image/png,iVBORw0KGgoAAAANSUhEUgAAAIAAAAB8CAYAAAChbripAAAABmJLR0QA/wD/AP+gvaeTAAAfkUlEQVR4nO2dd3hUVfrHP+dOzaSSBgLSQ0dAQDrY9mcFV4qAa91dyyK6iqCuWNa1ru6qu+qyrB27YllWRWnSi0BooVfpIZVMMn3u+f0xmWEymSQzkylB+T5Pnie3nHPfuee957znrfALgpRSSCkvkVK+LaXcKaW0SCkLpZRbpJTPSinPSzSNZxEDSCkVKeUoKeU62TBWSClHJZrms4gCpJQ6KeVNUsodIQx8IDZIKcdLKUWif0cs8bP8cVJKE/B7YBpwbsBl25Ei18bl22yu/cfdhjST4jw3R3Fd0icpM9Wk9ACUgPs3A88Cnwkh1NhTH1/8rBhASpkO3AX8EcitcQ1KF+Rbt/7104re5VXujGDt2zbXHH7ihsyDvdrpLgAMAZd3A38F3hdCOGJAfkLws2AAKWU2MAW4B2jmf02VFC/aZN321Een+lZa1bRQ+stKU4qnj0vfdmmfpL5CENjmBPAy8IoQwhIN+hOJM5oBpJTNgfuAuwGT/zW3ypE5yyv3/+O/5gF2p0yKpP/0ZMX8wPj0LZf1S+ouAhgLKAZeA/4hhCiLpP+mgDOSAaSU7YF7gdsBo/81h5tDsxeYj/1nnrm/W0UbjeclG0TVXaNSN4wfntJZUWgRcNkMvA08J4Q4Ho3nxRNnFANIKXsB04FJUHNwbQ65680FlcXvzDcPUlU0sXi+TiscN16asu72y1Nb6TS0C7hsB94FnhJCHI7F82OBM4IBpJR9gT8B4wig2WxRt774ZYXtf2st/aWMz+9RBOp1I1LW3nNNaq5BJzoGXHYAnwBPCyF2xYOexqBJM4CUchjwIHB14LXyKnXbkx+Ws2SLrUf8KfNAEahXDzRtmDYu3ZRsEIF0qMC3wJ+FEBsSQF5IaHIMUK14uRp4GBgUcFk9Ue7e8Ni7ZSkb9jq6xZ+6ujGkm3HrjOvTbS0yNAOCXF4IPCaEWB1vuhpCk2EAKaUCXAX8GTg/4LJz33HXjzPeLTtnz1Fnh7gTFwYGdzNsfeT6DFuLDE1/ar/flcBfhRD/SwBpQZFwBpBS6oGJwAygc8Bl++6jro0PvV3a9qdC1znxpy5y9Gyn3/3Y9RlFHc/RDoJaQukm4CU8SqWEahcTxgBSymROq2tb17xG1Ya99g2Pzi7verLcnRu0gzMEbXI1h2dMzDjQP88wkNraxQLgBeBDIYQr/tQlgAGklGnArcBDUHNPrUpZumiTbeuzH1f0PmUJrq49U9EqS3Pssd9k7O2fZ+hPgNIKOIhHuzhLCGGLJ11xYwApZQ6n9fQ1BleVFM3Pt+5+5uPyvlU2GfhyflbITFVKHhifXnBpn6Q+QpAecLkQ+DfwohCiIh70xJwBpJRtgal4pvtAde3hOcsrD7w813yBwyGNQTv4mSLZICrvGpWaP35ESldFELjMedXM/xRClMaSjpgxgJSyIx7jzB0ErH12h9z7xoLKwnfnmwdGS117psJkUKqmjErZMH54Sp6iECjoVgJv4dk5HIvF86POANVuVdOA6wmQfm0OufP1eZUVsxeZB6hx0tqdKfCqmW+7PKWlXiPaB1y2A58CfxFC7I3mc6M2CFLKoXgEu6sC+/Wqa+eusQRTkpyFH7zaxenj0lNMBhGo7HICHwPPCiF2RON5jWaA+tS1Radcmx9/75R27S57wtS1ZyqEQI4aaFo/9dq0pFST0jPgslfN/BchxLpGPSfShlLK7sBMYETAJffhYtfKGe+UZ2/7ydG9McSdhQcX9U4qeGhCupqdqgR6LUvgA+B+IcTJSPqOiAGklKPxrEn+wp1j5xHn6kfeKWtzoNAVuIadRRTQL0+/+7FJGVWtc7R9qDl2J4BLhBDbw+0zbAaQUo4AFgB677mjJe41d75S0uZYiatluP2dRfjo3UG/85XJWe4AC+RJoG+4u4WwGEBKmYTHSzbPe2r2oqrl//jqVOAycBYxhiJQ35qatbJXO8Nwv9NfCCHGhtNPuAxwCx73JwDmrrYufeLDspHh9BFL6LWCzq119GyrI6+VjuYZGnIzNGSnKYjqX6rVCCqtKiVmlZIKN/tPuNh12MmOw05+OpkQdXzEEAL5xSO5a9rkagf7ne4phNgWch/hPFBK+R1wGUCVXW678IHjXWPlfhUqstIURvYycnHvJPrl6dFrI9/YFJa5Wb7NxrKtNtbstOM+A6IAMlOVkvnPtBACMqtPPSOEmBFq+5DfVrXZthxIAnj+s4rVnyyrHFx/q9ihXyc9ky5MYWQvI0pgKEcUUHTKzVerLHy5ykJhuTv6D4giXrsra+mgrgbvTPyjEGJgqG3DYYBBgNejxTJk6nERqbt1YzCwq4G7R6fR7VxdXJ7ncku+XGXhje8qKa5omoxwfkfDjtfvzfIqjZxARqgxC+Ho4Yd5/ymrVHfZnbJvGG0bjQ4ttEwdk87gboEm9dhCqxGMH57MqIEm3l1YydvzK3G6ZVxpaAib9tu7SElFdRCLDhgALA2lbTiT5xDfA/c5ToVHYuQQAsYMNfHe9Jy4D74/jHrBHVem8sGDOfRoG5/ZJ1SoEqWkQt3jd2poqG3DYQDfer9okzU1jHYRIzNVYdY92cyYmIFR3zRsRx3P0fL21BwmjkxONCk1kL/PUel3GF0GkFJ24rT3jrpihz2vvvujgU4tdcyelkO/TvqGb44zNApMH5fOEzdkoNc1DcZckG/1dy4ZUu1k2yBCnQF8HGV3yH3mqtCCLCNF/zwDb0/N5pzMhO4wG8TVA028fEdmk5id1uy05wFeRUYGEJLbfNgMsPuYK6bxb73b63npjkxMhsS/1FAwsIuB1yZnJZxei11Nttqlv69ASMtAqAzgEwCXbLHG7LPs3kbHq3cl/mWGiz4d9bzw+0w0MdBHhIMdhx3+FsHoMICUssZ0sniztU34pDWMrDSFv9125nz5gRjU1cDDExPryPzDFrv/9iQkBghFDzCEakZRJScPnXQHplxpNPRawd9vy6R5RnQnl8JyN3uOOiksd2O2ePbuGgWapSqcm60lr5Uuqgz368Emtv/k4POVickbsXiTtcP9Y3ziWUcpZQshxIn62oTCAD5OOlrs2g+1PFgbjduuSKVXu+hI+xv22Jmfb2N5ga1BFa4ioGc7PSN7Gbl6YBLZaY1nwKlj0lm/x5EQw9KJMndztyqPaRThNcsPBr6sr01YDLB2p93eCPqConsbHTdfmtKoPqSE+flW3ppfyd5jzpDbqRK2HHCw5YCDmd+YubSvkTuuTKVNTuSOyka94MmbMrj1xeKEGJMOF7kPtmuu9TLAUBpggHplACmlV60IwIJN9uxGU+j/cAGPXp/RKOFp/wkXt7xYzMPvlIU1+IFwuSXfrbcy/ukiXplbgcMZubq3R1s91w5JjKJo5Xa7/9TToBzQ0Kvvy+lgDuvm/dFVAF05wETnVpGrVb9cZeE3zxdRcDB6Sbtcbsk7Cyq58W/FHCmOfBq/48pUko3xF2gX5Fv9w+36VafMqxMNMYBv+1depe52umTU1HJ6reDOqyLTKEsJL39VwVMflTfqS60Pe485ufGFYrZGyFyZqQo3NXJpiwTbDjk6SYk3rEwH9Kvv/oYYwDeFbD7gjGomrCv6J0Ws6XvpywreW1TZ8I2NRIVFZfKrJRHPMOOHJcddS6iqKKVmNWSFUEMM4GcAskV1URs3PLLuPl5axQc/xH7wvbDYJff9p5RjpeH7AqQnK1w1IO4uE+Tvs5v9DiNjgOpUbK28hysKrJ2iQBsAPdrq6N4m/LW/4KCDF7+ImyXah1KzysNvl0Uk1Y8dFn9hcOFGm7+tZmh9hqH6ZoDTBiCn3HeqSg1MlBgxLusX/lfhcEn+/EF5wvz0th50RLTsdGmt49xGbCsjwaptti6cNgw1A7rUdW99DOATAPcdj64BaHjP8CPBP1texYETifXaffN7c0RuYZf0iW/ku8UhTVa73Od3qs5lIKQZYMlWW9QkmY7naMNWtNidkrfnx2/drwsWu+T9xVVhtxvWI/6pD3YedhT6HQ6p676gDFCdxsUXdbJ4kzVq+v/eHcLfSS7It1JW2TR8tL9aZcHqCG/r2b2NDq0mvruBJVvs/l9Z2DPAYKpj+1VJ8YETrrbRIqzbueEzwNc/WqP1+EbDbFVZuS28ND4GnSCvZXzlgB+22vzT6eVJKYPacOpiAB/HHC917avjnojQNUx37gqLysZ9TSs9/w9bws/jFO7vbiyOFrtaqCreOEGB35beHw0ywI87nVH9/Fpnh6f82XrAgauJuWFv3h8+Q7ZIgHvb4WLXT36HQZeBWgwgpdQAF3iPF2y0RM0ApNcJUpPCs/zsPBK5gSdWOF7q5lRVeDJJi2bxZ4BV2+z+Ly8oAwRbmHoDXiW2fdM+R9QMQNmpp4M0Q8XxCDRwkWJkLyPtW4S2VttdtWclp0tid3r+bE58/zucEoNWcMuv6rcNFJ1y800U5Z0Fm6zNJ13kU0T1k1IaA/MQBvu1Pk4xW+Quuyt6tfSSIvC+KTXHT/o3GQR3j47c4VmnFei0gpQ69Fy/Or9uBVh5pcpt/yiO+NnBsPWgo5OUVApBCp5kHv3w5Cv2Idh8fNoAtN8eVQOQjGApj6fmb+FGW1wZzosqm+TumSXsj7KiS1XRlFbVHzEUjAF8SoNFm21RtWREIspp47h0Ot2S/62Nrz+f3Sm5b1YJ2w/FRtbZuNfun3G0fgaQUrbhdJ09uWKbLbAaRqNgC1OBAh67ejzx+coq1DhtOlxuyfQ3y9iwN3bb3IUbbf5OF0MCC2EGvl0fhzjc8kCpWc2KJjElFWrYy0C8peejxW7W7oy662MtqCo8Ors8bKVSuFi1zdYZ8ErS2QSk5A9kgNMGoGOuo9EmxuGSYW+fukagOWws5qwIX98fDqSEpz8pZ35+7DWcVXaZYnPUbRiqcwZYXhA9A5A/jpeFt63r1U4X94ibZQW2mG4/X/6qgq9WxU/W2H3U4R8bUMMw5Hu1UsoUoJf3eNFGaytigB1hCjtpJoU+HeObF0BVYe6a2AzQv7428/7i+Fo2f9hct2HI/9saRLVeQELJvhOudrEgZvuh8AWeKxPgVvXFSkvUVdAfLanize/NDd8YZSzebPM35nWprt0A1GQAH2cUlrr2xaoG35YD4TPAFf2TSE+O7zpQXOFmWUH0hMG5ayz8PQHubABHil2tVBWvU4/Arxqb/1v1rQ3rdjtjtkDtO+7iaHF466tBJ7i1ATVqLBAtYXDRJhtPflQekSIsWjhS7Drod+j72BXwlWzzpRb7fqM1kxhiydbwpd8JI5Lj7lv34y57o2P8lm618fA7ZagJ9mdZtdPuP/XWZAA8wp83xYh9w57YpoBZtDH8va9eJ3jihoyY5ASsC1J6oo8ixbrddh56u6xJmLMX5lv9HUIGSCkNcJoB/AxA6h5HjPP/bT7gYMfh8FWfvTvomTIqptlpamHuGktE0UcFBx1M/U9pzCKXwsWWA448KfGuaQaqi3PWYoCCnxwl8SDos2WRra83X5oScVBJJDhVpbIgzBlr7zEnd88sxWJvGoMP4FbRllepu/1ODYUgDLB4iz0um+7vNlg5GWEK1ofGpzNhRPyY4PMwhMHDRS4mv1ZChaVpOLH6Y9P+2oYhRUrZEvDtE5cX1HAmjBnsTsnMbyLbEwsBD4xP58Hx6eji4G27+YCDXSF4JhWWu5n8agklFU1v8AEWbbT5b6WGSSmFgl8KWKebg0VxLNX69Y+WRsX0XzcimfemZ8clb/AXDQiDZZWeQNJIYgjjhWUFtQxDnRT8vEUPFbqOxJMgVYWnPz7VqC1SXisds6fn8Jcbm9E2N3bbxG9/tFBlC76mV1pV7nqthIOFTbveQJVNptodcr/fqSE19v87jzrj/gu2HHAwu5Gh3oqAqy5I4vNHcnl1chajB5mi7kdgsUvmra89C9gckj/OKg1piWgKKDar/kL+QC3gi/o9VuJKSGrOWd+aGdjV0OipXAgY3M3gSyp9pNjFriMuTpa7KTG7kRK++dFK0anIpuk5KyyM84v2dbol094oZVMTi1uoD6Vm1dEqyzfMbbWAz2MkO1WbkAXM4ZLcN6uU2dOyyY1iqrjW2VpaZ9dcFrYecETMAHuOOtlywMF57fW43JIH3ihj9Y7YO49EE81SFf+vrJkC+KaEPp10CcuDXnTKzfQ3yyJyGwsHJmPjlobPV1hQJTz+XjnLCuJa6T0qyM1QmvsdHlOAtd6jds213Yz60CpNxAIFBx3cPbMkpgqUpEambJm/0cpjs8v4bkPTiVcMFee10+/Sa4T/Nn+TAnzhPRKQ+cC4jB/jT9pp5O/1qFDDjcANFaZGZu5yOCXz1p95gw/w1C0Z5QGnPlbwFCPe5T0zepBxQF5rXVQDQsPFut12fvticUzcss7UXMSNxYThyWtaZWn9i0l9IITYqwgh3MDv8RQbQgiRPHtatkhNUhLjvVCN3Ued3PS3oqhL2CZ9glN6JwCdW+sOTB+f7l+A+iQwFaptAUKIFcA071W9RnSYMyN3r6KQULVWqdkTLvW3z0/hCBKLFwkiCU87k5FsFOZ3pmbL6vAw8OQOmuAtNu37HIQQ/wTe9B5npyv9nv9ts+VxpTYIVOnxpbvh+SI27Gn8luuXtAQoAvWzGbk7Dboagt99QoglvnsC2kwBfELgRb2TRk66KGU1TQD7jru4/Z8l3PPvUvYcjVzr9ktigBdvz1rWPEMzwO/Ue0KIV/3vqcEA1aHDv4bTmSXuvzbtvG5tdP4BhgnFym02Jj5XxO9eLmbhRmvYwaPGXwgDjB2atHZ4T181UYB84I7A+4K+DSnlYOAHPJ4juFWOXPbIcVOZWcbUVzAStGim4cLzjIzsZaRfnqHBIJLVO+xM+VdcfF4Shs6ttPs/fDA3RwiflrcQ6C+EqGXsq/NzkFLeCcz0HpdUqPmXP3qid6KLRdcHk0HQ7Vwd3dvq6dJaR4tmnsrhuRkaDNXl3Tbvd/Dbl6Ibh9+UkG7SlH//TPNTOo3Px8MJXCqEWBbs/nrnQynlLOB27/GKAtvSP84qbTLl4s+iJhSB+u2TzfNz0jX9/U7fKYSYVWebBvqcAvh2AsN6GkfccFHKqkbSeRYxwj//kLk8YPDfqW/woQEGEEI4gesA79oh7huT1rdvR/2OxpF6FtHGxJEpywd3M47wO7UauLOhdg2qxaqrTo0HvJvwpFn3ZKVlpio/b0nqDELPdvrd08elnc/pJf0EMF4I0aDiJCS9qBBiDX6ygEYRrT59OPcnjULT9oH6BSA9WSl7496sJMDrqeLEM/gh5XcIWTEuhJgNvOY9bpainP/qHzJX1tOk0Vj8XAu+fqJ5wzdGGc0zNGx4pSXP/67J7XprQKPg+vyR3J90GuGfy3lytWo/JIRrGbkPWOI9uKCrceTtV6QmXF38S8W/p+SsbJai9PE79aoQ4o1w+giLAaqFwnHAAe+5O65MHdA/T789nH7OovG45VcpK8/P0/lvyVcB94fbT9i2USFECTAW8HoOGWdOyc7ISlN+vtqVJobz2ut33j06ra/fqcPAtUKIsG3nETnSCyE2SinvAN4DUBRafj4jd+uvZhSmhVtaThEw8cJkxg5NpmWWhrJKlUUbbcz8pqLedue113PjJSn06aAnzSQor1JZt9vBG9+Za/jnd2mt48MHc/h6rYV3F1ZyzzVp9OmoR6cRbD/k5N/fmsO2Ml7eP4nrhieT10qHVoHDxW7mrbfwweIqn9m627k63n8gh2UFNu6bVVqrDyHgv483JztN4fJHCkMOJctOU4revDc7jdP1HG3AWK95N1xE7B0hhHgfeNl7nGpSes28K3NNuP38aUIG949JR6cVfLSkinnrrIzoZeDVyVl1hoJfO8TEm/dl07u9nqVbbby7sJL1ux1c0sfI+w/kBK1D3Dpby9tTs9HrBB/+UMW89VZ6tNUxc0oWI8IoYXPftWk8fXMzWmdrmbvGwodLPHGDU0al8a8pWb5QtR2HnWz7ycmw7sagRbEHdTXQKkvDgnxryIOv1SjOTx7OPaYotPQ7fZcQYl3IPyAAjXWPmQZ87z3o28kw4g9Xhy4U9sszMGaoid1HnUx45iT//G8Fr8ytYMKzRRjqyCzevoWWh65LZ/V2G1c/XshTH5Xzr6/NzHi3jBueL0JKeGRSeq12fTrqmbPCwuRXS/jPPDNPfVTO71/2rFqPXp+BXtewlfD8TnpuuDiFI8Uuxj9zkhfmnOKVuRVMeu4kK7fb6dtRX6NY5GfLq1AU+PWQ2sU7xw717NrCqTT++h+brc5IVnr7nXpJCPFWyB0EQaMYoNqd7HrAF270+8tSBw3tbtwSSvvRAz1pCGZ9a67hBGpzSP5VR+Do+OHJaDWC2YuqSDUJstIU359nGbDTqaWuVlFKs1WtlaBp+yEn3623kpmqMLxHw0HR1wzyDOTr31XWyHfoVuGlL08hJVwz+PRgf1/9dV8z2FRjNstO0zCil9EXZxAKfvt/qSvPa2/w1/QtBh4IqXE9aHQwnRCiVEo5Bk8W6mRA9/KdmS1G/bnwxIlSd4v62nZp7QlDyA+SKnXj3uDr8nntPdP7rHvqT2Kanaap4VS664gzqLt5/j47V12QRJfWOhZtqt/P30tvMJnhwAkXxRVuWmVpSE1SMFtVHE7J3DUWbrg4hWHdjb44gl8PNqFRQv/6L+hiLLhrVKq/jv8nYKIQotGKuKhEUwohNkspbwLmAEIR5H78YE7BZTMKm9ldss5PKyVJwa0SdA202GVQ13BvtrD7Xy+t108wMFCzrpBt7/mUEApZeO+pq6/iCpWcdA0pSQJztef4nBUWfnNRCmOGmlhWYEMRniXB6pB8u65hBsjJ0Jx8bXJmFtW+GYAVj9BX1GDjEBC1cFohxBdSyr8B0wFSTUrPd6Zlr5j0XNGwutpUWlXOydSQZlJqMYHJIEjSCwId2SutKqDhRJmbnWGkmclKCz7A3vOefuuH99lZaUpQl/VsX1+nGfNwkYu1u+wM7W6keTONb3n6alXd0cZeaDWK85OHck4oCv41G34nhNjQILEhIto+0g8B87wHnVvpht0zOi2oIwLgi6g9v1Ntqf38TsEnDm817yv6h5fGqEtrXVB/wH7Vzwklutd7T7+82rS1zdWSnabhaIkbcwAzeYXBawebGDvUIyN8vrLhrCNv3Zu1Jj1Z8R/8F4QQHzXYMAxElQGEECrwG8BXvfrmX6UMHtHTuDnY/f9b65kn77gytUbIllEv+EMdpeU/WVqFW4WJI5MZ0Ln2QJgMImhljtQkhd9dVrPP7m10XNYviVKzyvJtDesC/ludPva2y1NqJK7UKDB1TJpnb7+69rS+rMBGYZmbscOSGd7DyI7DzgbrA9zz67RlPdrphvudWgg83CCRYSLqGRWEEGVSytHAGiAN0P399syWox8/efx4mesc/3vX77Hz5SoL1w4x8emMXBZvsiIlXNw7iZOnan9J4PEOfvqjcmZMymDmlCzW7LSz64gTjQLtmmsZ0NnAoSIXCwIycW/c52DcMBM92urYvN9BToaGy/slIYAnPywPKZtX/l4H7y+u5IaLU5gzI5eFG63YnZKhPYx0aKFl4z4HsxfWznWgqp7Us3+42sOADeUcGtTFsPXmS1L8o3gOApOiIfQFIiZhMkKIHcDNVBcJUQQ5n83IOWXQiVpBdc98XM6LX1TgdEkmjEzmsn5JLN1q456ZJXVmDvnvGgs3vlDEt+usdGih5YaLk7lmsImWWVq+XmvhhTm1g5qOFru49cVibA7JxJHJXN4vie2HnNz5aklYUb4vfVnBI++WcbjYxdUDTUwYmYyU8Nr/Kpj8WgnOOnICzq2uRGKxS76rJ7awebq28JXJmbmcFvoqgdFCiJio2mPqIy2lfAqY4T3ed8y18rpnT9Zbzz7a8FcFP/5+oEgZP4zsZeTF2zOZs7yKZz8NHnWn1wvbwmda7Es2CG/ZXolnu/dprOiKdaDcY8DX3oOOLbVDp42pWyj8uUIIuOmSFKSET5fXPf2/dW/OOr/BB3g2loMPMZAB/CGEUKWU1+ORB7oDTLooZciGvY5NP2yx9am/9ZmP7m10DO1hpFdbHX066pm33sq+48GX8Wlj05Z2O1frb96dj+cDiiliHiorhDADYwDvvKd94bbMNm1yNYdj/exEo1c7PXdemcp5HfR886OVZz8JvgQN7m7cMunCFP/avnvwBHDGPDg3bnFS1TuDL6lmOptD7rrkTyfOtTlkbUvJLwitsjTHvnq8uV4ReEv0VgKDhBDb4vH8uAXLCyHmAk96j4160eW9aTmb4vX8pgi9Xtg++lNuud/gS+DWeA0+xJEBqvEEHnsBAB3O0Q7504T0pXGmocngnanZ65MNorvfqb8IIebU2SAGiCsDCCEkcCvg4/Bxw5KHXTHAtD6edDQFPDyx2ZIurXT+dpK5wF/iTUfc86UIISrxCIVeiUjz5E0ZHdrlag/Fm5ZE4dLzk/LHDk3yH/ydwI3VqvS4IiEJc4QQu4EJVCcuFpD52Yxc7S+BCUb0NG5+7pZmXTi9BTfjMe/W7wQZIyQ0W4KU8mHgad8xlL4+z7z9P/PMQ2NVtSxRMOiE9Zlbm629sJdxCOA1f6rANUKIr+tpGlMkmgEE8Ame2EMf3Ko8tmG3Y8+6PQ7tkRKXUVXPTGYw6oW7fa7GNriHUXRuqeslBIHOio8KIZ5KCHHVSPiLlVLqgc+A0YmmJc74uxBiWsO3xRYJT5pXHcxwHfAM1bkKf+YoBW5rCoMPTWAG8IeUshNwE3AV0B5olliKogKJJ1x7N560vB/GyrQbCf4f5gP1EW2AaKQAAAAASUVORK5CYII=" parent="1" vertex="1">
          <mxGeometry x="640" y="460" width="66.06" height="64" as="geometry" />
        </mxCell>
        <mxCell id="sbC0h_5_dTqSD_PA98CA-6" style="edgeStyle=orthogonalEdgeStyle;rounded=0;orthogonalLoop=1;jettySize=auto;html=1;exitX=0.5;exitY=0;exitDx=0;exitDy=0;entryX=0;entryY=0.5;entryDx=0;entryDy=0;" parent="1" source="sbC0h_5_dTqSD_PA98CA-2" target="ZnrArUxqcu4yzv8pIiHy-1" edge="1">
          <mxGeometry relative="1" as="geometry" />
        </mxCell>
        <mxCell id="sbC0h_5_dTqSD_PA98CA-7" style="edgeStyle=orthogonalEdgeStyle;rounded=0;orthogonalLoop=1;jettySize=auto;html=1;exitX=1;exitY=0.5;exitDx=0;exitDy=0;entryX=0;entryY=0.5;entryDx=0;entryDy=0;" parent="1" source="sbC0h_5_dTqSD_PA98CA-2" target="ZnrArUxqcu4yzv8pIiHy-2" edge="1">
          <mxGeometry relative="1" as="geometry" />
        </mxCell>
        <mxCell id="sbC0h_5_dTqSD_PA98CA-8" style="edgeStyle=orthogonalEdgeStyle;rounded=0;orthogonalLoop=1;jettySize=auto;html=1;exitX=0.5;exitY=1;exitDx=0;exitDy=0;entryX=0;entryY=0.5;entryDx=0;entryDy=0;" parent="1" source="sbC0h_5_dTqSD_PA98CA-2" target="ZnrArUxqcu4yzv8pIiHy-3" edge="1">
          <mxGeometry relative="1" as="geometry" />
        </mxCell>
        <mxCell id="sbC0h_5_dTqSD_PA98CA-2" value="my-service.prod.svc.cluster.local " style="shape=image;verticalLabelPosition=bottom;verticalAlign=top;imageAspect=0;aspect=fixed;image=data:image/png,iVBORw0KGgoAAAANSUhEUgAAAIAAAAB8CAYAAAChbripAAAABmJLR0QA/wD/AP+gvaeTAAAW0klEQVR4nO2deWBU1b3Hv787W5LJZF+AKIQl7DuENaA8sdYKtNUgS9VXbEUraJWCC1jaqpX67FNr9VlbRUSrorS11veohk12ZEsISAiEPYGQhZDJZPb7e3/M3MnNJJNkkpk7CdzPXzn33HvOb3J+95xzf79zfge4jmBmYuZbmPldZi5i5npmLmfmw8y8ipmHR1pGlTDAzAIzz2Tmfdw6O5h5ZqRlVgkBzKxj5vuY+VgbGt6fA8w8m5kp0r8jnFyTP46ZYwD8FMBSADf6ZdsuVLgObT9qc5266DbExQjOG1MF1y0jo5NMMcIQAILf/QUAVgH4lIjE8EuvLNeUAjBzPIBFAH4OIK1RHlCdd9Ba+OIntSNqLO6E5p7vla45/5t7ks4My9SNA2Dwyy4G8CKAD4jIEQbxI8I1oQDMnAJgMYBHASTK80RG5aZ869HnP7o6qs4qxrWlvOQ4oXJZbvzR6SOjRxHB/5lLAF4F8Eciqg+F/JGkSysAM6cDeBzAIwBi5HluERfWb6879Yd/mrPtTo5uT/nxRsH8xOz4w7eNiR5MfooFoBLAGwD+QERX2lN+Z6BLKgAz9wbwGICFAKLkeQ43zq3NM5f9eYN5rFuENhT1GQ1kWTTTdGD2lNj+goBuftlmAO8C+B0RXQxFfUrSpRSAmYcBWAZgHtC4cW0OPv5OXl3lmq/ME0QRmnDUr9OS497psfsWfteUodMg0y/bDuA9AM8T0flw1B8OuoQCMPMoAE8DyIWfzOZ6sfDlf9Ta/rW3fiyzMr9HIIh3T43d++j3TWkGHfX1y3YAWAfgt0R0XAl5OkKnVgBmzgHwJIAZ/nk1FvHocx/WYOth2xDlJfMgEMQZ42MOLM2NjzEayF8OEcD/Afg1ER2IgHhtotMpgNfwMgPAcgAT/LLFSzXuAyvfuxJ74KRjkPLSBWbSoKjCFfPjbd0SNNnNZG8EsJKIdistV2t0GgVgZgHAHQB+DWC0X7az5KLrmxXvXel+otTZR3HhgmDiIEPhM/MTbN0SNGPR9P+7E8CLRPSvCIjWLBFXAGbWA5gLYAWA/n7Z9uJS16Gn3q3udbbc1V156drP0Ex98cr5CRV9u2snAE0mpfkAXoHHqBRR62LEFICZjWgw197QOA+WAyftB365tmbg5Rp3WrMFdBF6pmnOr5ibcHpslmE8mloXjwB4CcCHRORSXroIKAAzxwFYAOApoPE3tchcvSnfVrjq49oRV+ubN9d2VTKSNWUrf5RwcmyWYSz8jFYAzsBjXXyLiGxKyqWYAjBzKhrs9I0aV2RUfHXQWvzCxzWjLDb2/+dcUySZhKonZscfmT4yeiQR4v2yywH8CcDLRFSrhDxhVwBm7gVgCTzdvb+59vz67XWnX/3cPM7h4KhmC7hGMRqobtFM08HZU2MHCgT/YU4yM79GRNXhlCNsCsDMfeFxzjwIv7HP7uCTb+fVlb/3lXl8qMy1XZUYg2BZPDP2wOwpsVmCAP+Jbh2A1fB8OZSFo/6QK4B3WdVSAPPhN/u1ObjoLxvqatduMmeLClntugqSmfmB78b20Guot1+2HcAnAJ4lopOhrDdkjcDMk+GZ2N3hX65krv18T31zRhIVGZJ1cVlufGyMgfyNXU4AHwNYRUTHQlFfhxWgJXNtxVVXwa/ev6rde9weMXNtV4UIPHN8zP4lP4yLNsUIQ/2yJTPzs0S0r0P1tPdBZh4M4E0AU/2y3OcrXTtXrKlJOXrWMbgjwql4mDYi+shTc+LFFJPgv2qZAfwVwC+I6HJ7ym6XAjDzLHjGJPnkzlF0wbn7mTVXep4ud/mPYSohYEyWvnjlvATLDanakWjcdpcA3EJE3wZbZtAKwMxTAeQB0EvXSqvcex76Y1XPsipXj2DLUwmeEX30RX98ONnt54G8DGBUsF8LQSkAM0fDs0o2S7q0dpNl+x8+u+o/DKiEGYEgrl6SvHNYpmGK7PLfieiuoMoJst45aGh8fL7buk1t/MggMoQFL1flnLvskruY72TmoCbcwSrAXOkPi52PPvfxlZwgn1cJIcygn7xa2Z8BubVwfjBltNkK53Xb+t72Nz4314Zr7V1b6dtdi1H9/B1syrKlwIqq2sh5dKvNYvLeIvvXEwYabvJemg6Pa71NBGOGHQ1AWl5d/9luy8ggng0L2f0NWJbr709RlpNlTlTVRnafyDv/rkubMND3Ioxi5pi27lkIZgjwdfdX6sTj7V1rrxJ68k/ZBzBD8h7qALTZ4hqMAkzyVVjiuBrEcyphRmQIVbXiCdmlyW19NhgFmCj9sSnfagriORUFOFjiqJMlQ6sAzNwPDat3xB3H7Fkt3a+iPHkHrfLJ0CTvIttWaWsP4NMou4NLzJa2bbJUUY49RfYsANK6wgQAbVo2H7QCFJe5utz+t+uBertotNpZvlagTcNAWxXANwHcetga0W9/lcAcO++QewRDowDM3Kg72Vxg7Rm8aCpKsOWwXSdLhqwHmCTdJzIun7vs9g+5otJJ2Jxvle+a6svM/lvZm9AWBfBpUmml61R7BFNRhktX3OlukeXu4IkBb/YSlALsLbLb2yOYinKcr3CfkSVbHQZaVABmbmRWzMu3p7RbMhVF2PmtXb7FrGMKAGAUGjZzWAtOqQagzk7eQat83B/jDZkXkNa8gb7PvxqLWOx08YiOCBdq/rajHl98Yw36OZ2WsPGFdF/a6WZMf7q8XTLU2ztX6MCj5xz9mFHrjW6mAzAGwPZA97emAL4upOC0s9NFwnK6GU4rB/2cXtd4JZxAhDpr52rI9iKKEKrN4snkOEGKsTAZLShAa0OAzAFkM4ZAPhUFOFhiN8uSLc4DAiqANxRbhpTcccTaLwSyqSjAxkM2ua9mckuOoZZ6gAYHkJNLrlpE/0CJKp2UXUdtA9DgGEoEMCDQvS0pgG8CWHJRdQB1JeodHGO1c4nsUsBhoE09wNZCm7qTt4tRdN4h/6yZFOi+ZhXAG8bFt758c75Vtf93MbYetsu/8ILuASbCu7dfZFSevuTqFULZVBRgS6FN7hjKYuZmg20FUgCfxlysdpUEuEelE1Na6eomipAcQ4QAjqFWFeCbImfwpjaVTsH5StdZWbLZYaCJAjCzBsA4KZ13qF51AHVRdh21O2XJZhWgOVPwCACx3r/t+SUORRxAGcka3D3ViBhDsNsVg0fjV4VAwIq5yoQlrKx148MtFpgVMD3n5VvT503zGXDHMHOUfxzC5hTApynmej5ud4X/LD0i4M3FKchIicxyQyLgzsnKhSfs10OHZW+HNfobAKDwjKMfM+qIEAtPMI8x8MQr9tHc69bgADplV8QBFG8UItb4kWBIT13rN4UAUYSm2tLyjqHmFMBnNNhUYFNk/991Z2VS8AcfOmmXRxxtogCNhgBm7omGc/Z4x1Gb/2kYirDzWzte/LQmrHWsXZqKBKNH/89XurDojaqw1vfWIynonqR8L7fxkM00faTvPZ7EzEREPh+6/xzApyEON5+uNosRic1vtYsorXSHtQ5RNgdzuRD2+lzu4NcthIJdR239AbjhMeylwBOS33eUjf8Q0OAAKnOVKiGgSnix2DnW5gjsGPJXAF/m9iOqA+haobjUcUmWbOQY8ikAM8cCGCalNx2yZkDlmmBLQWDHkLwHmADvnICBqpJLrszwi6aiBJsLbHJn3gDv2Q0AGiuATzPKq10lSp3BpxJ+LlS6MkQR0qIeguw0NrkC+MaGfcXOLn8oskpjLlS6zsiSvpddAHxHto2XLn55yJqkmGQqirCryC4PZdZYAeCZ/EkhRuwHTqg7gK41Nh60yheEZDOzAWhQAJkDSDzhUEPAXXMcPu3IYobFmzTAezhnEwU4ctYRXpuoSkRwi9DWWMRi2aXJQIMp2KcAmw/bQx57dfxAA8ZmBS5WqwH2n5ANUURYNLPlOFSrvzTD6mjevDq4pw7TRrTciRWXOqHVeD50bA5utb712y0or2neXHxjqhazJrTsTj5X4UZ5jcf+7HS1Xt+/99ej5GJoz5LMP2WvnTbc93+ZDOD3WmbuAcD3nbj9iC3k9v/sLAMWfCe29RuD4KOtdQEVYOCNOtwfZH05Q1rW+62HbQEVICNZE3R9Ewe1XF9xqTPkCrDpkC1WpgA5zEwCZCFgnW6cqejiR7WqBGbbEZ9jCPA4hvoJkK0WPVfuuhAJwVSUwWJjk93B8jA/kxp9/xeVOiNygLGKclSaRfkkf7wAwLfrt6zKdf2sy7pOqTaLcoNQLwGAL/Bzikkb3lURKhEn0STIFyQmCgB8XcLIfjplViuqRIy0BCFdliwTAOyVUpnp2kFR+radNKHS9RieqT+u15D8Mz9fAPB3KUVA0hO5Cd8oL5qKEjz/4wT/lbYfC/AcRuxbJDhrQlR21g06dUPoNcacKcY9Gcna8bJLfyWikwIRuQH8FJ6TqUFExrVLU8gULajHwlwj9L9Bd3rZ7Hj5AdSXASwBvM4gItoBYKmUq9dQn/Ur0k4KAtSvgi6OMYrMa5aksHd7GOCJHTRHOmzatyKIiF4D8I6UTokXxvzX/YkB48updH4EgvjpirQig67RxO9xItoqJfw3hiyGZ3HIOACYNiL6pnnTnLs/2lLXatTplnC4GPX20G6MEFsozulC6OtroUK3GPr6QrGR5OWFydvSEzQ3yy69T0Svy+9psvCTmbsD2A+ghycNy72/ryg7ds6prhLqQtw1OXrv8rmJ49DQxgcB5BBRo4AfTTaHEtFFALkA7J40jO/9IjU60UTh38+sEhL6Z2hPPT0ncTAaGr8cwPf9Gx8IECKGiHYDeExKawTcsO6p9DPqpLDzEx+jqVm7LE1D5DPxOwHcTUTNenoDhuMgoj8B+LOUTo4TRr/yQNKOkEqrElIEgrhuecpJnQbyjSCPENG2gM+0UuZiyCJN5wyNmnrPtNhdHZRTJUy89rOk7anxmrGyS2uI6K2WnmlRAYjICeBuAFL3QY/fGTdqVF/9sY6JqhJq5t4Uu33ioKipsku7ATzU2nOtRmQioksAZsM7KQQQ/dajyXFJJkFdPdxJGJqpL16WGzcaDZO+SwBmE1GrZzy1KSQXEe0BsFBKawTK+GR52lmNAHUFUYSJNwpX3n4sORqAFA7MCU/jtym+Q5tjshHRWgBvSOnEWGH06z9L2tnCIyphRiPA9bdn0s7qNCSP5fyw17TfJoINyvc4gK1SYtzAqJsW3m5SzcUR4k+LU3cmxgojZZdeJ6K3gykjKAXwTgpzAZyWrj34PVP22Cz9t8GUo9Jxfnxr7M7RWbqbZJd2AfhFsOUEHZaTiKoA3AVAWjkU9ebilITkOKEy2LJU2sfw3vqiR2bFjZJdOg/gh0TkCPRMINodBIKZ7wHwvpQ214uFt64oH+B0sb69ZXaEqUOjMO9mI/p21yHOSDDXM0qrXNh4yIYPNtdheG893l2Sgi0FNiwNEKXzs5Vp6JakwXeWl6O2viGM2LBMPe75DyNG9tUjwSigxiKipMyFf+yuR95BZWNpp8QJFRue6+YUBI+vBoANwFQi2tee8todmJeIPgDwqpQ2xQjD3lyUtKe95XWEWRNi8MqDSejbXYfNBVa882Ud8g5Z4XAyvj/Rs2fv8GkHzl52IWeoAfHGpj97RG89bkzVYluhvVHj5+YYsXpJCqYOjcL+Ew6syavD14U2xBsFzM5RLrwsAGg1gnPd8rQyWeMDwKL2Nj7Q+rmBrbEUnqPlbwOAUf0MU382w7T9zS/MUzpYblD8cFIMXG7GvBcvo6q2cRDm2OiGxv5ibz0WzYzDbWOi8ck2S6P7ZoyP8d0jkZWhw5Oz41FrEXH/K5U4e7nxV29qvLLbKP7y88TdCUZBbux5hYhWd6TMDoXm9i4nmw/At93op7eZJkweHHW4I+UGC8OzPkBsJgC3/EDI/91nhcjAjHGN31y9jnDr6ChUm0Xs/LYhmHZuTgwEAXhrg7lJ4wNAxVXlfGP3f8e0c3hvg7zxNwN4oqPldjg2OxFVA7gT8AUf0L36UFK3bkmaSy08FlK+3G+FXktYvyINT86Ox/RR0c2+neVX3NhXbMeQXjpkpjd0fjcPi4IpWsCG/fVwy5RoWKZnOrP7WGQPTR83IOrIopkmuY3/LIC5RNRhQ1xIgvMTUQGA++B5GSEQ0j5+MrXSoG3dFBkK1m2z4Jn3ruBchQu5U4x48f5E/Pv5dLy7JAUj+jSek0pd/MzxDb1AQ/ffeEJnivH8ey4H2BauBKkJmstvPJyUDE9UDwCwAriLiCpCUX7ITmcgor8D+L2UNsUIQ9csTWn35CRYNuy3YsHLlbj5iYtY/D9VWL/DgsE9dXj94WSkJzb0BpsLbKi3M27PjoZAQHKcgIkDDSgudaK41NmoTLN3MpiWEJktk1qN4Fz3VOolQUB32eWfENGBUNUR6uM5ngKwQUr0z9DlPDorLqAvOhxYbIzdx+xYte4qPthsQYyBkN2/IRiDzcHYeMiK9AQNsvsb8L1szzjv//YDQOEZz2d1a8EcwsXqx5L3xBsF+YEdLxHRR6GsI6QKQEQigB8BOCld+89bYydOHRpVEMp6/Bk/0NDkGBgAvnDwNr9IIv/yDgN3jIvBjHHRcIvAhv1Nd8R9ur0eogg8eLsJvdKafjClh7FnePQHcduGZOrkX1MbASwPdT1hiQbKzIMA7AEQBwAio2LWry67Ll5xdW/5yfax+Xfd4BaBAyfsKKt2gxkYmqnD2CwDSi66cO9LFbA7G5SACPjnr9KRniBAqyFsO2LD4281bxzKnWLEk7Pj4XIxvi604XylGwlGAUN66VBnFbHwtdB7xScMMBS+sTi5PxrG/TMAsoko5NbWsIWDZeYfwLPvkADAaueiW56+1MsehhB0uTlGTBxkQFYPHZLjBLjcjIvVbuQdsuGTbc0f0PTg90xYeLtn2dwT71RjU76tyT0SI/rocd8tsRjRRw9TNKHGIuJEqQuf7arHxvzQWgLT47XlXzybCkEgaRdvHYBJRFQY0oq8hDUeMDM/D2CFlC4pc+28e9XlFs+zv57R68m28YVuJUYDScf2Mjyfe5+Eq85wn9G2EsAXUqJvD+3kpXcqOynsSqx+LHWfrPEBYFU4Gx8IswJ4J4XzAfjcxfOmxU6aNjwqP5z1dkWW3hX39aAbtfJJ31fwvEBhJeynNBKRGR5LobTbWPvSA0k9e6Zpzoe77q7CxMFRh+fdHCvffncCng2cYbdAhf+YTgBEdBweS6EIeAJRfPRkWr0ajQTISNaUvfZQUg8AksmyDh7ffniPTfOiiAIAABF9DuA5KR2lpwHvL029rocCvZ5sHz2dViMQpPOZGcACIjqqlAyKKYCX3wBYLyX6dNdOenpO/NcKy9BpWLMkZb/RQINll54lovUBHwgDiiqA98DCBQB8Gp6bY8y5PTtmv5JydAaWz03cOiBDlyO79DmAZ5WWQ+keAERUB8+kUBrjNM/dl9AnM017TmlZIsX00dEH75ocLW/8IgD3er+aFEVxBQAAIioGMAfewMUEJH26Ik17PSjB1KFRBb/7ceIANKzGMsPj3q1t4bGwEdGTwZh5OYDf+tJA9V82mL/98wbz5Gvt1DKDjqwvLEjce/OwqElomPGL8Ozb/6KFR8NKpBWAAKyDZ++hD7fIZQeKHSf2nXBoL1S5okSxaypDlJ7cvdM0tolDoqh/D90wIt+5TBK/JKLnIyKcl4j/Y5lZD+BTALMiLYvC/DcRLW39tvASkTmAHO9mhrsBvABvrMJrnGoAD3SGxgc6QQ8gh5n7wWMxvANAbwCJkZUoJDA827WL4XGPfxgOv357+X/50/mr/d9BEwAAAABJRU5ErkJggg==;labelBackgroundColor=default;" parent="1" vertex="1">
          <mxGeometry x="120" y="460" width="66.06" height="64" as="geometry" />
        </mxCell>
      </root>
    </mxGraphModel>
  </diagram>
</mxfile>
